<svg viewBox="0 0 1024 1024" version="1.1" xmlns="http://www.w3.org/2000/svg"><path d="M512 1019.46709333c-136.13283555 0-264.11008-52.75648-360.37518222-148.54826666C55.32330667 775.05422222 2.27555555 647.62311111 2.27555555 512c0-135.58670222 53.04775111-263.05422222 149.31285334-358.88241778 96.26510222-95.79178667 224.24234667-148.54826667 360.37518222-148.54826667s264.11008 52.75648 360.33877334 148.54826667c96.33792 95.82819555 149.34926222 223.29571555 149.34926222 358.84600889 0.03640889 135.62311111-53.01134222 263.09063111-149.34926222 358.91882667C776.11008 966.67420445 648.13283555 1019.46709333 512 1019.46709333zM512 77.35068445c-116.76330667 0-226.49969778 45.21984-309.00224 127.35829333C120.53162667 286.77461333 75.09333333 395.92846222 75.09333333 512c0 116.07153778 45.40188445 225.22538667 127.86801778 307.25461333 82.50254222 82.13845333 192.23893333 127.35829333 309.00224 127.35829334 116.72689778 0 226.49969778-45.21984 309.00224-127.35829334 82.46613333-82.10204445 127.90442667-191.21948445 127.86801778-307.29102222 0-116.07153778-45.40188445-225.18897778-127.86801778-307.21820444C738.49969778 122.60693333 628.72689778 77.35068445 512 77.35068445z" p-id="1006"></path><path d="M766.86222222 475.59111111l-218.45333333 0L548.40888889 257.13777778c0-20.09770667-16.31118222-36.40888889-36.40888889-36.40888889s-36.40888889 16.31118222-36.40888889 36.40888889l0 218.45333333L257.13777778 475.59111111c-20.09770667 0-36.40888889 16.31118222-36.40888889 36.40888889s16.31118222 36.40888889 36.40888889 36.40888889l218.45333333 0 0 218.45333333c0 20.13411555 16.31118222 36.40888889 36.40888889 36.40888889s36.40888889-16.27477333 36.40888889-36.40888889l0-218.45333333 218.45333333 0c20.13411555 0 36.40888889-16.31118222 36.40888889-36.40888889S786.99633778 475.59111111 766.86222222 475.59111111z"></path></svg>
