<?xml version="1.0" encoding="UTF-8" standalone="no"?>
<svg
  xmlns="http://www.w3.org/2000/svg"
  id="svg6549"
  viewBox="0 0 315.48 230.87"
  version="1.1"
>
  <defs
    id="defs6551"
  >
    <clipPath
      id="clipPath594"
    >
      <path
        id="path596"
        d="m1388.5 4235.1s178.55 301.54 445.04 303.91c266.5 2.33 558.43-112.31 558.43-112.31v703.51 703.51s-277.41 112.67-558.43 112.28c-281.02-0.38-445.04-303.91-445.04-303.91v-703.5-703.49"
      />
    </clipPath
    >
    <clipPath
      id="clipPath574"
    >
      <path
        id="path576"
        d="m1388.5 4235.1s291.5 195.39 557.98 197.75c266.49 2.34 558.45-112.31 558.45-112.31v703.51 703.51s-277.43 112.68-558.45 112.3c-281.01-0.39-557.98-197.77-557.98-197.77v-703.5-703.49"
      />
    </clipPath
    >
    <clipPath
      id="clipPath552"
    >
      <path
        id="path554"
        d="m1388.5 4235.1s307.49 109.94 588.16 112.28c280.67 2.35 588.17-112.28 588.17-112.28v703.49 703.5s-292.19 112.69-588.17 112.3-588.16-112.3-588.16-112.3v-703.5-703.49"
      />
    </clipPath
    >
    <clipPath
      id="clipPath532"
    >
      <path
        id="path534"
        d="m1389 4235.1s-178.54 301.54-445.03 303.91c-266.49 2.33-558.43-112.31-558.43-112.31v703.51 703.51s277.42 112.67 558.43 112.28c281.02-0.38 445.03-303.91 445.03-303.91v-703.5-703.49"
      />
    </clipPath
    >
    <clipPath
      id="clipPath512"
    >
      <path
        id="path514"
        d="m1389 4235.1s-291.49 195.39-557.99 197.75c-266.48 2.34-558.44-112.31-558.44-112.31v703.51 703.51s277.42 112.68 558.44 112.3c281.03-0.39 557.99-197.77 557.99-197.77v-703.5-703.49"
      />
    </clipPath
    >
    <clipPath
      id="clipPath492"
    >
      <path
        id="path494"
        d="m1389 4235.1s-307.48 109.94-588.16 112.28c-280.67 2.35-588.16-112.28-588.16-112.28v703.49 703.5s292.18 112.69 588.16 112.3 588.16-112.3 588.16-112.3v-703.5-703.49"
      />
    </clipPath
    >
    <clipPath
      id="clipPath470"
    >
      <path
        id="path472"
        d="m2019.5 5773.5c-312.25-0.4-578.25-100.59-578.25-100.59-28.92-10.88-76.23-10.88-105.14 0 0 0-266 100.19-578.24 100.59-317.58 0.42-578.68-100.26-578.68-100.26-28.828-11.13-52.411-45.49-52.411-76.39v-1397.4c0-30.9 23.684-47.34 52.637-36.54 0 0 277.29 103.38 578.46 100.86 294.34-2.46 575.31-46.41 575.31-46.41 30.53-4.78 80.47-4.78 110.99 0 0 0 280.97 43.95 575.33 46.41 301.14 2.52 578.44-100.86 578.44-100.86 28.96-10.8 52.64 5.64 52.64 36.54v1397.4c0 30.9-23.58 65.26-52.41 76.39 0 0-261.1 100.68-578.67 100.26"
      />
    </clipPath
    >
  </defs
  >
  <g
    id="layer1"
    transform="translate(-216.55 -392.14)"
  >
    <g
      id="g466"
      style="fill:#553203"
      transform="matrix(.125 0 0 -.12969 200.7 1162.5)"
    >
      <g
        id="g468"
        style="fill:#553203"
        clip-path="url(#clipPath470)"
      >
        <path
          id="path486"
          d="m2019.5 5773.5c-312.25-0.4-578.25-100.59-578.25-100.59-28.92-10.88-76.23-10.88-105.14 0 0 0-266 100.19-578.24 100.59-317.58 0.42-578.68-100.26-578.68-100.26-28.828-11.13-52.411-45.49-52.411-76.39v-1397.4c0-30.9 23.684-47.34 52.637-36.54 0 0-587.4-519.72 578.46 100.86 1386.2-985.55-150.95-46.162 1261.6 0 301.14 2.52 578.44-100.86 578.44-100.86 28.96-10.8 52.64 5.64 52.64 36.54v1397.4c0 30.9-23.58 65.26-52.41 76.39 0 0-261.1 100.68-578.67 100.26"
          style="fill:#6c5353"
        />
      </g
      >
    </g
    >
    <g
      id="g488"
      style="fill:#e6e6e6"
      transform="matrix(.125 0 0 -.125 200.7 1135.4)"
    >
      <g
        id="g490"
        style="fill:#e6e6e6"
        clip-path="url(#clipPath492)"
      >
        <path
          id="path504"
          d="m1389 4235.1s-307.48 109.94-588.16 112.28c-280.67 2.35-588.16-112.28-588.16-112.28v1407s292.18 112.69 588.16 112.3 588.16-112.3 588.16-112.3v-1407"
          style="fill:#e6e6e6"
        />
      </g
      >
    </g
    >
    <g
      id="g508"
      style="fill:#808080"
      transform="matrix(.125 0 0 -.125 200.7 1135.4)"
    >
      <g
        id="g510"
        style="fill:#808080"
        clip-path="url(#clipPath512)"
      >
        <path
          id="path524"
          d="m1389 4235.1s-291.49 195.39-557.99 197.75c-266.48 2.34-558.44-112.31-558.44-112.31v1407s277.42 112.68 558.44 112.3c281.03-0.39 557.99-197.77 557.99-197.77v-1407"
          style="fill:#808080"
        />
      </g
      >
    </g
    >
    <g
      id="g528"
      style="stroke:#000000;stroke-width:16;fill:#e6e6e6"
      transform="matrix(.125 0 0 -.125 200.7 1135.4)"
    >
      <g
        id="g530"
        style="stroke:#000000;stroke-width:16;fill:#e6e6e6"
        clip-path="url(#clipPath532)"
      >
        <path
          id="path546"
          d="m1389 4235.1s-178.54 301.54-445.03 303.91c-266.49 2.33-558.43-112.31-558.43-112.31v1407s277.42 112.67 558.43 112.28c281.02-0.38 445.03-303.91 445.03-303.91v-1407"
          style="stroke:#000000;stroke-width:16;fill:#e6e6e6"
        />
      </g
      >
    </g
    >
    <g
      id="g548"
      style="fill:#ffffff"
      transform="matrix(.125 0 0 -.125 200.7 1135.4)"
    >
      <g
        id="g550"
        style="fill:#ffffff"
        clip-path="url(#clipPath552)"
      >
        <path
          id="path566"
          d="m1388.5 4235.1s307.49 109.94 588.16 112.28c280.67 2.35 588.17-112.28 588.17-112.28v1407s-292.19 112.69-588.17 112.3-588.16-112.3-588.16-112.3v-1407"
          style="fill:#ffffff"
        />
      </g
      >
    </g
    >
    <g
      id="g570"
      style="stroke:#000000;stroke-width:8;fill:#ffffff"
      transform="matrix(.125 0 0 -.125 200.7 1135.4)"
    >
      <g
        id="g572"
        style="stroke:#000000;stroke-width:8;fill:#ffffff"
        clip-path="url(#clipPath574)"
      >
        <path
          id="path586"
          d="m1388.5 4235.1s291.5 195.39 557.98 197.75c266.49 2.34 558.45-112.31 558.45-112.31v1407s-277.43 112.68-558.45 112.3c-281.01-0.39-557.98-197.77-557.98-197.77v-1407"
          style="stroke:#000000;stroke-width:8;fill:#ffffff"
        />
      </g
      >
    </g
    >
    <path
      id="path588"
      style="fill:#b3b3b3"
      d="m374.25 607.52s19.621-28.024 52.754-30.941c33.182-2.92 70.736 8.02 70.736 8.02l1.9438-86.491-125.43 23.954v85.459"
    />
    <g
      id="g590"
      style="stroke:#000000;stroke-width:16;fill:#ffffff"
      transform="matrix(.125 0 0 -.125 200.7 1135.4)"
    >
      <g
        id="g592"
        style="stroke:#000000;stroke-width:16;fill:#ffffff"
        clip-path="url(#clipPath594)"
      >
        <path
          id="path608"
          d="m1388.5 4235.1s178.55 301.54 445.04 303.91c266.5 2.33 558.43-112.31 558.43-112.31v1407s-277.41 112.67-558.43 112.28c-281.02-0.38-445.04-303.91-445.04-303.91v-1407"
          style="stroke:#000000;stroke-width:16;fill:#ffffff"
        />
      </g
      >
    </g
    >
  </g
  >
</svg>
