<?xml version="1.0" standalone="no"?>
<svg viewBox="0 0 1024 1024" version="1.1" xmlns="http://www.w3.org/2000/svg" xmlns:xlink="http://www.w3.org/1999/xlink">
  <path d="M693.763386 875.52677197H184.82590522c-60.12732808 0-109.0580316-48.93070351-109.05803158-109.0580316V112.12055083c0-60.12732808 48.93070351-109.0580316 109.05803158-109.0580316h508.93748078c60.12732808 0 109.0580316 48.93070351 109.05803158 109.0580316v654.34818954c0 60.12732808-48.93070351 109.0580316-109.05803158 109.0580316zM184.82590522 75.76787364c-20.03032514 0-36.35267719 16.32235206-36.35267719 36.35267719v654.34818954c0 20.06667782 16.32235206 36.35267719 36.35267719 36.35267721h508.93748078c20.06667782 0 36.35267719-16.28599939 36.35267719-36.35267721V112.12055083c0-20.03032514-16.28599939-36.35267719-36.35267719-36.35267719H184.82590522z" p-id="1298"></path>
  <path d="M839.17409478 1020.93748077H293.88393681c-20.06667782 0-36.35267719-16.24964671-36.35267718-36.35267721s16.28599939-36.35267719 36.35267718-36.3526772h545.29015797c20.06667782 0 36.35267719-16.28599939 36.35267719-36.35267719V221.17858242c0-20.06667782 16.24964671-36.35267719 36.3526772-36.3526772s36.35267719 16.28599939 36.35267719 36.3526772v690.70086675c0 60.12732808-48.93070351 109.0580316-109.05803158 109.0580316zM548.35267719 293.88393681H257.53125963c-20.06667782 0-36.35267719-16.28599939-36.35267721-36.35267718s16.28599939-36.35267719 36.35267721-36.35267721h290.82141756c20.10303048 0 36.35267719 16.28599939 36.3526772 36.35267721s-16.24964671 36.35267719-36.3526772 36.35267718zM621.0580316 475.64732281H257.56761229c-20.06667782 0-36.35267719-16.28599939-36.35267719-36.3526772s16.28599939-36.35267719 36.35267719-36.35267721H621.0580316c20.10303048 0 36.35267719 16.28599939 36.35267718 36.35267721s-16.24964671 36.35267719-36.35267718 36.3526772z" p-id="1299"></path>
  <path d="M621.0580316 657.41070878H257.53125963c-20.06667782 0-36.35267719-16.24964671-36.35267721-36.35267718s16.28599939-36.35267719 36.35267721-36.35267721h363.52677197c20.10303048 0 36.35267719 16.24964671 36.35267718 36.35267721s-16.24964671 36.35267719-36.35267718 36.35267718z" p-id="1300"></path>
</svg>