<?xml version="1.0" standalone="no"?>
<svg viewBox="0 0 1024 1024" version="1.1" xmlns="http://www.w3.org/2000/svg" xmlns:xlink="http://www.w3.org/1999/xlink">
  <path d="M846.58786241 344.70606879c-25.09408966 0-41.82348279 16.72939313-41.8234828 41.82348282l0 493.51709701c0 33.45878623-25.09408966 50.18817937-50.18817938 50.18817939L269.42379977 930.23482801c-33.45878623 0-50.18817937-25.09408966-50.18817938-50.18817939L219.23562039 386.52955161C219.23562039 361.43546191 202.50622727 344.70606879 177.41213759 344.70606879S135.58865479 361.43546191 135.58865479 386.52955161l0 493.51709701c0 75.28226902 58.55287592 133.83514497 133.83514498 133.835145l476.78770392 0c75.28226902 0 133.83514497-58.55287592 133.83514493-133.835145L880.04664862 386.52955161C888.41134521 361.43546191 871.68195208 344.70606879 846.58786241 344.70606879z"></path>
  <path d="M445.08242753 804.76437961l0-418.234828C445.08242753 361.43546191 428.35303439 344.70606879 411.62364127 344.70606879S361.43546191 361.43546191 361.43546191 386.52955161l0 418.234828c0 25.09408966 16.72939313 41.82348279 41.82348282 41.8234828S445.08242753 829.85846928 445.08242753 804.76437961z"></path>
  <path d="M662.56453809 804.76437961l0-418.234828C662.56453809 361.43546191 637.47044839 344.70606879 612.37635873 344.70606879S578.91757247 361.43546191 578.91757247 386.52955161l0 418.234828C578.91757247 829.85846928 595.64696561 846.58786241 612.37635873 846.58786241S662.56453809 829.85846928 662.56453809 804.76437961z"></path>
  <path d="M930.23482801 177.41213759l-209.11741402 0L721.11741399 118.85926166C721.11741399 60.30638575 670.92923464 10.11820638 612.37635873 10.11820638L411.62364127 10.11820638C353.07076536 10.11820638 302.88258601 60.30638575 302.88258601 118.85926166L302.88258601 177.41213759 93.76517199 177.41213759C68.67108232 177.41213759 51.94168921 194.14153072 51.94168921 219.23562039S68.67108232 261.05910322 93.76517199 261.05910322l836.46965602 0c25.09408966 0 41.82348279-16.72939313 41.82348278-41.82348283S955.32891768 177.41213759 930.23482801 177.41213759zM386.52955161 118.85926166C386.52955161 102.12986858 394.89424816 93.76517199 411.62364127 93.76517199l200.75271746 0c16.72939313 0 25.09408966 8.36469654 25.09408966 25.09408967L637.47044839 177.41213759l-250.94089678 0L386.52955161 118.85926166z"></path>
</svg>