<?xml version="1.0" standalone="no"?><!DOCTYPE svg PUBLIC "-//W3C//DTD SVG 1.1//EN" "http://www.w3.org/Graphics/SVG/1.1/DTD/svg11.dtd"><svg t="1641655499175" class="icon" viewBox="0 0 1024 1024" version="1.1" xmlns="http://www.w3.org/2000/svg" p-id="1207" xmlns:xlink="http://www.w3.org/1999/xlink" width="200" height="200"><defs><style type="text/css"></style></defs><path d="M2.27555555 930.70222222a509.72444445 91.02222222 0 1 0 1019.4488889 0 509.72444445 91.02222222 0 1 0-1019.4488889 0Z" fill="#286432" p-id="1208"></path><path d="M202.97159111 392.82801778C83.31377778 595.46168889-9.51751111 826.65472 28.68906667 892.82901333c72.06115555 124.81422222 894.18183111 123.23498667 966.14286222 0 12.18104889-20.86001778 11.00686222-58.63310222-0.12401778-106.99207111-197.79242667-9.24672-643.60220445-239.23256889-791.73632-393.00892444z" fill="#419646" p-id="1209"></path><path d="M825.5488 401.9712c-63.96700445 63.58698667-182.10702222 139.67928889-312.12430222 206.59996445 173.44739555 94.29674667 368.0256 171.97169778 481.28341333 177.26577777-23.24252445-100.97777778-89.91744-248.11861333-169.15911111-383.86574222z" fill="#419646" p-id="1210"></path><path d="M511.75992889 56.12430222c-75.65198222 0-202.75313778 157.13735111-308.78833778 336.70257778 63.31050667 65.72145778 180.99655111 145.36248889 310.45290667 215.74314667 130.01841778-66.92067555 248.15729778-143.01297778 312.12430222-206.59996445-107.008-183.31192889-236.93425778-345.84576-313.78887111-345.84576z" fill="#419646" p-id="1211"></path><path d="M1006.10958222 795.48188445l0.16042667 0.00796444-2.69198222-11.69408-1.54851556-6.72881778-0.05233778-0.00227556c-23.52924445-96.50062222-84.69390222-235.01482667-165.02670222-373.59388444l0.00910222-0.00910222-3.54986666-6.08028444-5.93237334-10.16263112-0.02503111 0.02503112c-54.21169778-91.73560889-111.93799111-174.13575111-163.24721777-232.92359112-62.14087111-71.19758222-113.43075555-107.29813333-152.44401778-107.29813333-38.45006222 0-88.85930667 35.02193778-149.82485334 104.09301333-51.05436445 57.84120889-106.47779555 136.0896-160.68949333 226.80120889l-0.02503111-0.02616889-6.08711111 10.30940445-3.51914667 5.95854222 0.01251556 0.01251555c-60.15431111 102.57863111-111.03459555 207.70929778-143.54545778 296.70627556-17.48878222 47.872-28.96327111 89.26663111-34.10488889 123.03473778-5.72871111 37.61607111-3.4304 65.69870222 6.82894222 83.46851556 41.12839111 71.23512889 285.83367111 97.07861333 482.88881778 97.56330666 2.00817778 0.00455111 4.01408 0.00682667 6.01998222 0.00682667 115.32970667 0 226.01500445-8.16128 312.27790223-23.05251556 101.25084445-17.47854222 162.04686222-42.53696 180.6995911-74.47893333 11.90684445-20.39352889 13.04234667-54.65998222 3.41674667-101.93692444zM575.36739555 630.87274667c-1.19352889-0.60643555-2.38364445-1.21514667-3.57489777-1.82385778a2423.04568889 2423.04568889 0 0 1-4.51015111-2.30968889l-3.13230222-1.61223111c-1.73738667-0.89543111-3.47477333-1.79313778-5.21329778-2.69539556l-2.38478222-1.23790222c-2.13219555-1.10819555-4.26439111-2.22094222-6.39772445-3.33937778l-1.20490667-0.63032888a2338.87630222 2338.87630222 0 0 1-16.06314666-8.5048889l0.83399111-0.44032c3.51232-1.84206222 7.00984889-3.68526222 10.48917333-5.53187555l1.06837334-0.56888889a2304.87608889 2304.87608889 0 0 0 10.80661333-5.77877333l0.22755555-0.12288c3.60561778-1.94218667 7.19075555-3.88551111 10.75768889-5.83111111l0.71224889-0.38798222a2279.23057778 2279.23057778 0 0 0 10.26844444-5.64337778l1.32323556-0.73045334c3.28248889-1.81703111 6.54449778-3.63633778 9.79057778-5.45564444l1.62360889-0.91022222a2119.12248889 2119.12248889 0 0 0 9.54368-5.39192889l1.59971555-0.91022223c3.19374222-1.81930667 6.37155555-3.63861333 9.52775112-5.45905777l1.28910222-0.74524445c3.25518222-1.88074667 6.49329778-3.76035555 9.70638222-5.64110222l0.68152889-0.40049778a1990.8608 1990.8608 0 0 0 9.50840889-5.60469333l0.76344888-0.45169778c3.12206222-1.85457778 6.21681778-3.70688 9.29564445-5.55918222l1.40288-0.84309333c2.96163555-1.78517333 5.89937778-3.56920889 8.81891555-5.35210667l1.6543289-1.01148445a1812.53688889 1812.53688889 0 0 0 8.55722666-5.27132444l1.66570667-1.03424c2.83420445-1.76128 5.65020445-3.52142222 8.44117333-5.27928889l1.49617778-0.94549333c2.85582222-1.80224 5.69457778-3.60334222 8.50488889-5.40103111 0.32654222-0.20935111 0.64853333-0.41756445 0.97507555-0.62577778 2.77504-1.77834667 5.52846222-3.55555555 8.25799112-5.32821333l0.78848-0.51086222c2.77959111-1.80906667 5.5296-3.61358222 8.26140444-5.41696l1.35736889-0.89429334a1385.76896 1385.76896 0 0 0 9.37756444-6.25891556 1389.14929778 1389.14929778 0 0 0 16.52280889-11.2992711l1.38467556-0.96597334c2.50083555-1.74307555 4.98232889-3.48387555 7.43196444-5.21784889l0.98190222-0.69859555c2.44849778-1.73738667 4.87310222-3.47136 7.26926222-5.19964445l0.54385778-0.39025777a1116.52067555 1116.52067555 0 0 0 7.29315556-5.31683556l1.08999111-0.79985778a1061.56487111 1061.56487111 0 0 0 6.83463111-5.08131556l1.28455111-0.96369777a996.98574222 996.98574222 0 0 0 7.84156445-5.96081778 925.80522667 925.80522667 0 0 0 6.39431111-4.95616c0.37319111-0.29127111 0.74183111-0.58254222 1.11274667-0.87381333a820.41742222 820.41742222 0 0 0 6.38179555-5.05856l0.73500445-0.59278222a758.56440889 758.56440889 0 0 0 6.42616888-5.21329778l0.15018667-0.12288a733.12597333 733.12597333 0 0 0 6.29987555-5.23605334l0.68949334-0.57799111a668.31473778 668.31473778 0 0 0 5.82428444-4.9664c0.29354667-0.25372445 0.59050667-0.50744889 0.88291556-0.76117333a596.29454222 596.29454222 0 0 0 5.52049778-4.83669334l0.88177778-0.7827911a543.64728889 543.64728889 0 0 0 5.33162666-4.80597334c0.25144889-0.22869333 0.49948445-0.45738667 0.74865778-0.68608a514.40071111 514.40071111 0 0 0 5.23832889-4.86513778l0.15928889-0.14791111a2270.64149333 2270.64149333 0 0 1 40.50033778 73.25582223l-1.58606223 1.92625777c-4.25870222 5.26677333-8.98275555 10.16718222-13.77393777 14.94584889-9.68021333 9.49361778-20.10794667 18.22378667-30.95438223 26.38734222l-8.17493333 6.06776889-8.32739556 5.86524445-8.42638222 5.71960888c-2.81486222 1.89326222-5.69685333 3.70346667-8.53560889 5.55463112-5.70254222 3.67957333-11.45059555 7.28405333-17.28170667 10.75882666l-4.34744888 2.63736889-4.39864889 2.56c-2.92864 1.70894222-5.85045333 3.42243555-8.82688 5.05173333-11.79875555 6.68444445-24.21191111 12.29824-36.56704 17.78005334a430.17557333 430.17557333 0 0 0-18.25336889 8.64256c-2.98325333 1.54624-5.97105778 3.06062222-8.92131556 4.66375111l-8.81322666 4.87992889a1703.63221333 1703.63221333 0 0 0-35.00828445 20.48682666l-17.65489777 10.6962489c-2.95480889 1.89553778-5.95854222 3.61699555-8.96341334 5.54097777-0.19114667 0.12288-0.38343111 0.24007111-0.57571556 0.36181333a2272.28216889 2272.28216889 0 0 1-16.10865777-7.89276444l-0.07395556-0.03640889a2259.43096889 2259.43096889 0 0 1-15.21436444-7.60149333c-1.20604445-0.60757333-2.40867555-1.21742222-3.61244445-1.82613334-1.41653333-0.71793778-2.83306667-1.43473778-4.25073778-2.15608888z m349.40359112-16.01991112a160.50403555 160.50403555 0 0 1-4.60344889 6.08256 215.84213333 215.84213333 0 0 1-15.34065778 17.2088889l-4.05617778 4.0903111-4.14264889 4.00270223c-2.78300445 2.64647111-5.56487111 5.27587555-8.42638222 7.82791111a333.45308445 333.45308445 0 0 1-8.56519111 7.6288c-2.85354667 2.53041778-5.78104889 4.98232889-8.71651555 7.40465778-5.84021333 4.88675555-12.40974222 8.94862222-18.78129778 13.02414222a113.59573333 113.59573333 0 0 0-9.1136 6.53198222 118.90005333 118.90005333 0 0 0-4.20864 3.62609778 160.56661333 160.56661333 0 0 0-4.00611556 3.86616889c-5.22467555 5.31342222-10.24 10.88398222-15.16885333 16.86528l-3.69208889 4.57955555-3.71598222 4.75818667c-1.22993778 1.68277333-2.50652445 3.26997333-3.77856 5.03125333l-1.94446222 2.63623112c-0.29696 0.43804445-0.60529778 0.86129778-0.91363556 1.29137777-53.03523555-18.84501333-110.92650667-42.95338667-170.76565334-71.25105777 1.68846222-0.14222222 3.35303111-0.35612445 5.03921778-0.53248 3.64316445-0.38343111 7.23854222-0.93525333 10.80661334-1.58151112 14.31893333-2.51335111 28.19527111-6.59000889 41.59601778-11.67473778l5.0016711-1.96835555c1.66229333-0.66673778 3.2768-1.42563555 4.91861334-2.13447111 3.25973333-1.46545778 6.50808889-2.96277333 9.65404444-4.64327111 6.34993778-3.26314667 12.45866667-6.96661333 18.42858667-10.87715556 11.90684445-7.89390222 23.26300445-16.54215111 34.80348445-24.77852444 23.03658667-16.54101333 44.96042667-34.69653333 64.72248888-55.15036445l7.27722667-7.79377778c2.37795555-2.64760889 4.70471111-5.34414222 7.04853333-8.00540444l6.78456889-8.23637333c2.16974222-2.83534222 4.33379555-5.65589333 6.41820445-8.54016 3.78311111-5.41582222 7.44561778-10.89877333 10.69283555-16.64910223 21.10919111 40.28871111 40.18403555 79.77073778 56.74780445 117.36064z m-102.80049778 122.16206223c0.38798222-0.03640889 0.77255111-0.06712889 1.16280889-0.1024 1.11616-0.13425778 2.20728889-0.33223111 3.32117333-0.50176 2.23800889-0.33905778 4.38272-0.84536889 6.53084444-1.37671111 8.56064-2.20273778 16.50574222-5.66727111 23.8444089-9.89184a67.18805333 67.18805333 0 0 0 5.34072888-3.38830222 60.46947555 60.46947555 0 0 0 4.99370667-3.81155556c3.20967111-2.68401778 6.13489778-5.67523555 8.87694222-8.84053334 5.45223111-6.37041778 10.33671111-13.17205333 15.58072889-19.51288888 2.59982222-3.19601778 5.16892445-6.40568889 7.65041778-9.68704 1.25155555-1.62929778 2.46897778-3.28704 3.66364444-4.96184889 1.19921778-1.67139555 2.41322667-3.32231111 3.57034667-5.02556445a317.16238222 317.16238222 0 0 0 6.74474667-10.33216l3.17781333-5.29294222 3.06517333-5.36007111c3.86844445-7.18051555 7.52298667-14.47936 10.49372445-22.10702222 23.86375111 55.36654222 42.05681778 106.27754667 52.94648889 149.08302222-42.64846222-3.81724445-98.02524445-17.41710222-160.96369778-38.89038222zM511.75992889 65.22652445c33.05130667 0 81.02229333 34.94684445 138.72924444 101.06424888 51.32970667 58.81059555 109.27786667 141.76028445 163.60789334 234.14101334l-0.4096 0.39594666c-0.43463111 0.41642667-0.87495111 0.83512889-1.31413334 1.25269334-0.54499555 0.51882667-1.09112889 1.03765333-1.64408888 1.55875555-0.44259555 0.41756445-0.89201778 0.83626667-1.33916445 1.25496889-0.56433778 0.52792889-1.12867555 1.05472-1.69984 1.58492444-0.44828445 0.41528889-0.90225778 0.83285333-1.35623111 1.25041778-0.57799111 0.53134222-1.15712 1.06382222-1.74307556 1.59744-0.45966222 0.41984-0.92387555 0.83968-1.38922666 1.26065778-0.59619555 0.54044445-1.19580445 1.08088889-1.79996445 1.62247111-0.4608 0.41415111-0.92615111 0.82830222-1.39150222 1.24359111a522.92949333 522.92949333 0 0 1-3.27111111 2.89336889c-0.63488 0.55637333-1.27203555 1.11502222-1.91488 1.67367111a557.53500445 557.53500445 0 0 1-3.40423111 2.94001778l-1.42449778 1.21856a705.02741333 705.02741333 0 0 1-7.00871111 5.89368889c-0.73500445 0.60984889-1.47569778 1.21969778-2.21866667 1.83068445l-1.40060444 1.1514311c-0.76231111 0.62464-1.53258667 1.25041778-2.304 1.87733334l-1.36305778 1.10592a833.33802667 833.33802667 0 0 1-6.33969778 5.0688l-1.20035555 0.95118222c-0.92387555 0.72817778-1.85685333 1.45863111-2.79096889 2.18908444l-1.08544 0.84992c-1.00579555 0.78392889-2.02183111 1.57013333-3.04014223 2.35633778-0.29923555 0.23096889-0.59505778 0.46193778-0.8954311 0.69290667a923.21109333 923.21109333 0 0 1-3.48956445 2.67264l-0.50289778 0.38456889a1017.76952889 1017.76952889 0 0 1-21.26961777 15.75139556l-0.06144 0.04437333a1027.06062222 1027.06062222 0 0 1-4.31786667 3.09816889l-0.57457778 0.40846222c-1.28455111 0.91591111-2.57365333 1.83182222-3.87299555 2.75114666l-0.83057778 0.58481778c-1.22538667 0.86471111-2.45418667 1.72942222-3.69208889 2.59640889l-0.94094223 0.65649778c-1.20149333 0.83968-2.4064 1.67936-3.6192711 2.52017778l-1.1116089 0.768c-1.16394667 0.80554667-2.33016889 1.60995555-3.50549333 2.41777777l-1.23676444 0.84650667c-1.14346667 0.78392889-2.29148445 1.56785778-3.44519111 2.35292445l-1.31185778 0.89088a1201.07235555 1201.07235555 0 0 1-3.44291556 2.32903111l-1.33688888 0.89884444c-1.15029333 0.77368889-2.30513778 1.54851555-3.46567112 2.32334223l-1.38695111 0.92501333c-1.15143111 0.76686222-2.30741333 1.53486222-3.46794667 2.304l-1.42563555 0.94208a1883.55697778 1883.55697778 0 0 1-3.49866667 2.304l-1.43928888 0.94321777c-1.17418667 0.76913778-2.35178667 1.53713778-3.53507556 2.30741334l-1.45749334 0.94663111c-1.19125333 0.77255111-2.38592 1.54624-3.58627555 2.31992889l-1.45180445 0.93525333a1835.71000889 1835.71000889 0 0 1-5.11089777 3.27452445c-1.21856 0.77824-2.44394667 1.55648-3.67160889 2.33472l-1.45066667 0.91932444a1365.9136 1365.9136 0 0 1-3.77287111 2.37909334l-1.41312 0.88860444c-1.28796445 0.80896-2.58275555 1.61792-3.88096 2.42688l-1.35395556 0.84536889c-1.33916445 0.83399111-2.68515555 1.66798222-4.03342222 2.50197333-0.41301333 0.256-0.82488889 0.512-1.24017778 0.76686222a1519.36568889 1519.36568889 0 0 1-5.33845333 3.28248889 1808.2816 1808.2816 0 0 1-4.42595555 2.70108445l-0.95800889 0.58368c-1.55875555 0.94776889-3.12547555 1.89553778-4.69674667 2.84330666l-0.74296889 0.44942222c-1.78517333 1.07633778-3.57717333 2.15267555-5.37827555 3.23015112l-0.07736889 0.04664888a1920.96483555 1920.96483555 0 0 1-22.65884445 13.34499556l-0.27079111 0.15701334c-1.79996445 1.04334222-3.60561778 2.08668445-5.41809777 3.13002666l-1.00579556 0.57685334a2168.40192 2168.40192 0 0 1-6.19633778 3.5475911c-1.42563555 0.81237333-2.85240889 1.62588445-4.28487111 2.43825778-0.58026667 0.32995555-1.16508445 0.65877333-1.74648889 0.98759112-1.34712889 0.76231111-2.69653333 1.52462222-4.05048889 2.28693333-0.66218667 0.37319111-1.32778667 0.74524445-1.99224889 1.11843555l-3.83772444 2.15153778a3775.42769778 3775.42769778 0 0 1-5.89027556 3.27907556l-2.29944888 1.27317333a2578.38762667 2578.38762667 0 0 1-6.0416 3.33027555 1699.58741333 1699.58741333 0 0 1-6.04501334 3.30638223 2412.50759111 2412.50759111 0 0 1-9.54368 5.1712l-2.60096 1.39832889a2427.0336 2427.0336 0 0 1-6.13944889 3.28590222c-1.15143111 0.61326222-2.304 1.22766222-3.45998222 1.84092444l-2.71701333 1.44042667c-1.12981333 0.59847111-2.26304 1.19580445-3.39626667 1.79427555l-2.81258667 1.48138667a3134.61418667 3134.61418667 0 0 1-9.63128888 5.03239111l-2.84444445 1.47683556-1.10364445 0.57002666c-2.00248889-1.09454222-4.00042667-2.18908445-5.99267555-3.28476444l-0.43235555-0.23779556c-1.82499555-1.00465778-3.64657778-2.00931555-5.46247112-3.0151111-122.0096-67.59424-226.45532445-139.89546667-285.29322666-198.28736l-0.31630222-0.31630223c-0.56433778-0.56092445-1.11502222-1.11843555-1.67139556-1.67708444 21.55292445-36.22912 43.64401778-70.92906667 65.62474666-103.18734223 0.84536889 2.43256889 1.80565333 4.80824889 2.81827556 7.16117334 2.61802667 6.08824889 5.88686222 11.68952889 9.3184 17.24302222 3.58855111 5.31569778 7.28860445 10.72696889 11.45742222 15.51815111a328.82915555 328.82915555 0 0 0 6.26915556 7.26812445c2.14926222 2.35747555 4.41571555 4.54542222 6.66168889 6.79139555 2.27896889 2.19932445 4.56931555 4.39523555 6.92906667 6.50808889 2.37340445 2.08554667 4.86286222 3.98791111 7.3671111 5.89141334 5.04035555 3.74442667 10.17059555 7.42855111 15.65696 10.46186666 5.45564445 3.10272 10.93632 6.13717333 16.39196445 9.17162667 5.54666667 2.85923555 11.0592 5.73667555 16.45112889 8.78250667 2.70904889 1.49959111 5.38624 3.05720889 8.11690666 4.5056l8.23978667 4.23708444 16.50460445 8.35811556c11.19118222 5.16096 22.38691555 10.25137778 33.65888 15.09034666l17.08600888 6.83918222 8.5253689 3.40992c2.83875555 1.13664 5.66727111 2.29489778 8.57315555 3.2768l17.30218667 6.13034667c5.78787555 1.97973333 11.54161778 4.01180445 17.33632 5.93351111l1.50641778-3.31434666c-5.16892445-3.25632-10.37767111-6.40113778-15.55342223-9.59943112l-15.58641777-9.40259555c-10.30030222-6.40568889-20.49024-12.93767111-30.69269334-19.37294223-2.58048-1.55534222-5.04490667-3.30638222-7.56053333-4.96526222l-7.50592-5.03011555c-5.00053333-3.34734222-10.04885333-6.60024889-15.00728889-9.97717333l-14.72512-10.28778667-7.37507556-5.08472889c-2.43370667-1.72487111-4.79345778-3.54531555-7.19075555-5.31114667-4.78890667-3.53735111-9.45607111-7.24309333-14.09137778-10.96817777l-13.39050667-11.70773334c-2.25848889-1.89895111-4.53404445-3.77059555-6.72654222-5.70709333a170.05795555 170.05795555 0 0 0-6.80163556-5.52846223c-2.29376-1.79996445-4.70471111-3.47249778-7.04512-5.19736888-2.30627555-1.75672889-4.68309333-3.4304-7.0701511-5.10065778l-7.27836445-4.88561778a286.09649778 286.09649778 0 0 0-7.21692445-4.93340444 206.23587555 206.23587555 0 0 0-3.69664-2.40526222c-1.25610667-0.78848-2.40753778-1.64295111-3.62837333-2.4576-2.40981333-1.64977778-4.90154667-3.24039111-7.41262222-4.84124445-4.84920889-3.29614222-9.92256-6.50808889-14.91057778-9.86794667l-1.93194667-1.23448888c-0.64625778-0.41187555-1.22311111-0.86243555-1.8682311-1.27658667-1.26407111-0.84195555-2.51562667-1.71349333-3.84-2.55317333l-1.54965334-1.06951112c25.40999111-36.76956445 50.5856-70.13831111 74.51648-98.66808888a287.14097778 287.14097778 0 0 0 6.54904889 7.02691555 421.11658667 421.11658667 0 0 0 9.05671111 9.03509333c1.52234667 1.48821333 3.08224 2.92181333 4.63530667 4.36679112 1.55648 1.43928889 3.09703111 2.90474667 4.68309333 4.30307555 12.58040889 11.34705778 25.72288 21.90791111 39.29770667 31.82023111 13.58734222 9.89411555 27.8528 18.75399111 42.79523555 26.48291556l11.20597334 5.78787555 11.29244444 5.63655111 11.24124444 5.70595556 11.17070223 5.81518222c29.62659555 15.77073778 59.84483555 30.48789333 90.42033777 44.34033778 30.66993778 13.67608889 61.73354667 26.48177778 93.34215112 37.61493333l1.47911111-3.32686222c-7.25902222-4.16085333-14.55445333-8.20906667-21.81233778-12.30734222-7.31932445-3.96401778-14.47822222-8.25457778-21.66215111-12.46663111l-10.78158222-6.29077334-5.39420445-3.12547555-5.33731555-3.24152889-21.32423112-12.95018667c-7.10542222-4.30648889-14.11527111-8.79729778-21.16835555-13.18115555l-10.58247111-6.56725334-10.49258667-6.72768c-7.00757333-4.45895111-14.04131555-8.85646222-21.01703111-13.35751111l-20.90780444-13.52248889c-6.98709333-4.46805333-13.76369778-9.30133333-20.57102222-14.05952-6.79936-4.77411555-13.53045333-9.65290667-20.2706489-14.51235555-6.76522667-4.81621333-13.66016-9.41056-20.64270222-13.86837333-6.98709333-4.44984889-14.18922667-8.55608889-21.43914666-12.59861334a709.96195555 709.96195555 0 0 0-44.66346667-22.57351111c-10.09322667-4.56817778-20.28544-9.00437333-30.82808889-12.97635555a848.85617778 848.85617778 0 0 1 6.28167111-7.21009778c56.55324445-64.06826667 103.64245333-97.93422222 136.17834667-97.93422222z m-8.02133334 911.51246222c-245.33902222-0.60416-437.44483555-36.98005333-467.16814222-88.46108445-16.28046222-28.19868445-6.12010667-96.08533333 28.60942222-191.15349333 0.94094222-2.57592889 1.90008889-5.16892445 2.8728889-7.77216 3.62609778 8.91562667 7.75964445 17.66172445 12.45866666 26.08469333l2.79324444 5.06652445c0.95687111 1.67253333 1.82840889 3.41788445 2.86151112 5.03694222 2.01728 3.27566222 4.096 6.51946667 6.15196444 9.79285333l3.11296 4.89813333c1.04334222 1.63157333 2.20728889 3.15733333 3.30752 4.74453334 2.23459555 3.14140445 4.4544 6.30897778 6.74019556 9.42762666 18.37283555 24.8832 39.83701333 47.37820445 63.04085333 67.6864l8.82005333 7.47975112 4.43847112 3.71029333c1.48252445 1.23335111 3.02876445 2.37681778 4.53973333 3.57034667 3.02876445 2.37795555 6.11669333 4.67854222 9.17504 7.01895111l4.61255111 3.47818667 4.72519111 3.30979555c12.56903111 8.87921778 25.58862222 17.07690667 38.90403555 24.70343111l10.0511289 5.60014222 5.0221511 2.79552c1.68277333 0.91363555 3.39512889 1.77720889 5.09383112 2.66012445l10.20814222 5.26563555c3.39740445 1.76128 6.79253333 3.52028445 10.25024 5.15640889l10.31623111 5.00280889c3.43950222 1.66001778 6.85966222 3.35758222 10.33898667 4.92771556l10.3936 4.79345778 5.19395555 2.39388444a132.15288889 132.15288889 0 0 0 5.2224 2.32903111 860.21575111 860.21575111 0 0 0 85.22524445 32.69632c28.97123555 9.21258667 58.36572445 16.93127111 88.04693333 23.06844445a856.25514667 856.25514667 0 0 0 24.88661333 4.64554666c-6.73223111 0.03982222-13.48039111 0.05688889-20.24561778 0.04323556z m315.15648-22.78058667c-62.94528 10.86577778-139.14680889 18.07928889-220.71182222 21.12967111-32.04551111-5.02556445-63.71100445-11.99104-94.81216-20.73486222a854.82837333 854.82837333 0 0 1-84.21034666-28.18616889 833.70211555 833.70211555 0 0 1-80.78677334-36.16768 125.00536889 125.00536889 0 0 1-4.89699555-2.55772445l-4.864-2.61802666-9.72231111-5.23150222c-3.26997333-1.68618667-6.39544889-3.64202667-9.57895112-5.48181334l-9.50954666-5.58535111a842.56995555 842.56995555 0 0 1-37.03921778-23.77955555c-12.12984889-8.19996445-24.09813333-16.56718222-35.97425778-25.02542222l-4.47829333-3.1391289-4.39751111-3.23925333c-2.94798222-2.13788445-5.86638222-4.31559111-8.84394667-6.41592889-1.47456-1.06837333-2.98780445-2.09123555-4.43050667-3.19829333l-4.34517333-3.30069333-8.74723555-6.54222222c-23.21749333-17.57297778-45.66812445-36.18929778-66.73408-56.46222223-5.15299555-5.15413333-10.63480889-10.09550222-15.59665778-15.46922667l-7.68-7.92348444c-2.54748445-2.66012445-4.91633778-5.45678222-7.41831111-8.17834666l-3.74442667-4.09827556-1.87733333-2.05482667c-0.60984889-0.69632-1.18556445-1.41425778-1.78631111-2.11740444-2.38364445-2.82624-4.75249778-5.67864889-7.19530667-8.50602667-1.19808-1.42791111-2.47011555-2.81827555-3.61244445-4.28487111l-3.45429333-4.40661333c-0.22755555-0.28103111-0.45283555-0.56661333-0.68039111-0.84878222 17.50926222-45.68405333 39.56280889-95.19445333 64.97962667-146.11456a170.17969778 170.17969778 0 0 0 3.30979555 8.94065777l3.07541334 7.19416889c1.10250667 2.35861333 2.28010667 4.67399111 3.42471111 7.02236444 0.58140445 1.16736 1.14119111 2.35406222 1.75559111 3.50321778l1.89781333 3.40764445c1.27886222 2.26531555 2.51562667 4.57614222 3.84227556 6.81756444 10.72241778 17.86652445 23.37336889 34.50652445 37.08245333 50.04288l5.21443556 5.75601778c1.73624889 1.92512 3.47591111 3.85024 5.2736 5.70368 3.58627555 3.72053333 7.14865778 7.49454222 10.85212444 11.08536889 3.67388445 3.63178667 7.33070222 7.29770667 11.14453334 10.76565333l5.6672711 5.27815111 5.75488 5.16551112 5.78218667 5.14048 5.89255111 4.99256888 5.90051556 4.99029334 5.97902222 4.87879111 6.01315556 4.84124444 6.0928 4.72291556 6.09621333 4.72405333 6.16448 4.62051556c32.98190222 24.51797333 67.95150222 46.07431111 104.18289778 64.97848888 36.28032 18.83249778 73.30247111 35.96288 110.67619555 52.10112a1598.23985778 1598.23985778 0 0 0 56.49749334 23.11281778 1500.03484445 1500.03484445 0 0 0 57.35879111 20.79061334c38.55928889 12.93198222 77.66584889 24.22897778 117.26620444 33.46545778 19.81326222 4.56135111 39.74826667 8.60046222 59.79704889 11.98421333 20.04992 3.36668445 40.20792889 6.14513778 60.46947556 7.91893333 20.25472 1.792 40.59704889 2.72497778 60.92686222 2.40071111 13.23121778-0.25258667 26.45902222-1.03992889 39.59921778-2.50538667-29.43772445 14.30641778-73.89070222 26.86748445-130.84103112 36.69788445z m168.07594667-65.71918222c-4.72632889 8.09415111-13.64878222 15.90499555-26.43512889 23.30965333-16.74012445 1.25496889-33.54055111 1.31185778-50.2784 0.50403556-19.98961778-0.91932445-39.90983111-3.03900445-59.69009778-6.01656889-39.57077333-5.96536889-78.62272-15.07555555-117.05002666-26.19619556-38.46371555-11.01027555-76.34716445-24.02304-113.58776889-38.60707555a1473.14460445 1473.14460445 0 0 1-55.50648889-22.71004445c-18.33301333-7.96444445-36.50901333-16.27818667-54.51093333-24.92984889-4.48398222-2.20046222-8.99413333-4.34176-13.45194667-6.58887111l-13.38481778-6.71516444c-4.44188445-2.27441778-8.84736-4.62392889-13.26990222-6.93361778-4.41571555-2.32334222-8.78819555-4.72860445-13.18229333-7.08721778a1419.39598222 1419.39598222 0 0 1-51.86901333-29.72899555l-12.80796445-7.65269334c-4.24277333-2.59072-8.46165333-5.21898667-12.72149333-7.77557333l-12.67939556-7.81880889-12.63274666-7.87228444c-16.80952889-10.53468445-33.50528-21.20476445-49.97916445-32.17180445-32.92842667-21.93749333-64.96142222-45.16977778-94.59029333-71.08380444-14.79793778-12.96725333-28.83015111-26.72867555-41.74734222-41.53571556-1.61336889-1.85116445-3.13344-3.76376889-4.71153778-5.64906667l-2.35292445-2.84444444-2.23800889-2.91498666c-1.48252445-1.95242667-3.01169778-3.89006222-4.47032888-5.87207112l-4.2245689-6.04842666a222.16704 222.16704 0 0 1-8.17948444-13.17319112c19.43893333-38.45688889 40.73699555-77.62602667 63.40949334-116.48227555 60.30449778 59.44092445 164.26552889 131.58855111 289.20149333 200.67100445l-0.06826667 0.0352711 15.11424 8.21703112 4.23139556 2.30058666 0.00910222-0.00455111c4.12444445 2.23232 8.26368 4.45895111 12.42225778 6.67761778l0.52792888 0.28103111c5.10976 2.72497778 10.24568889 5.43744 15.40209778 8.13966222l2.43484445 1.27317334c4.40206222 2.29944889 8.82119111 4.59093333 13.25511111 6.87217778 1.30616889 0.67242667 2.61233778 1.34599111 3.91850666 2.01500444 3.82179555 1.95697778 7.65724445 3.90485333 11.49952 5.84704 54.95580445 27.79022222 109.67381333 52.77923555 161.93536 73.95328 1.16053333 0.46990222 2.32448 0.94663111 3.4816 1.41312 3.16529778 1.27431111 6.31580445 2.52814222 9.46176 3.77400889a1625.45664 1625.45664 0 0 0 13.9218489 5.44881777c2.60209778 1.00465778 5.19054222 1.99566222 7.77329777 2.97756445 1.35395555 0.51541333 2.72270222 1.05130667 4.07210667 1.55989333 1.32323555 0.49948445 2.63395555 0.98417778 3.95150222 1.47797334l2.24824889 0.84081778c3.85251555 1.4336 7.68227555 2.84444445 11.48245333 4.22456888 1.06040889 0.38570667 2.11171555 0.76003555 3.16757334 1.14119112 2.76707555 0.99669333 5.51936 1.97973333 8.25685333 2.94684444 0.94208 0.33336889 1.90008889 0.68380445 2.83989333 1.01376 73.39463111 25.78090667 134.5536 40.49351111 181.94773334 43.78168889 12.05589333 56.02417778 6.57408 81.86652445-0.34588445 93.71648z" fill="#286432" p-id="1212"></path><path d="M941.57255111 561.39662222a9.10449778 9.10449778 0 0 0-12.67484444-2.24142222c-0.45056 0.31516445-45.92298667 31.86801778-119.40864 62.99192889a836.36906667 836.36906667 0 0 1-51.96231112 19.97596444c-3.44746667-14.49528889-9.32522667-26.72867555-17.63100444-36.53063111C723.09646222 585.76782222 696.56803555 575.71555555 661.04888889 575.71555555c-34.12081778 0-68.12444445 12.00924445-95.74741334 33.81589334-14.94129778 11.79534222-26.5216 25.54652445-33.46204444 39.17824A9.10222222 9.10222222 0 0 0 524.51555555 657.63555555a9.10222222 9.10222222 0 0 0-18.20444444 0 9.10222222 9.10222222 0 0 0-7.32387556-8.92586666c-6.94158222-13.63171555-18.52074667-27.38403555-33.46204444-39.17824C437.90222222 587.7248 403.89859555 575.71555555 369.77777778 575.71555555c-35.51914667 0-62.04757333 10.05226667-78.84686223 29.87804445-8.30577778 9.80195555-14.1824 22.03534222-17.63100444 36.53063111a837.08928 837.08928 0 0 1-51.96231111-19.97596444c-73.37301333-31.07612445-118.81927111-62.58119111-119.40636445-62.99079112a9.10336 9.10336 0 0 0-10.44024888 14.91399112c1.89098667 1.32323555 47.15861333 32.77368889 122.26901333 64.63829333a855.36768 855.36768 0 0 0 56.59079111 21.65304889A167.92462222 167.92462222 0 0 0 269.65333333 675.84c0 29.952 7.15889778 53.58592 21.27758222 70.2464C307.73020445 765.91217778 334.25863111 775.96444445 369.77777778 775.96444445c34.12081778 0 68.12444445-12.00924445 95.74741333-33.81589334 9.59829333-7.5776 17.80394667-15.96302222 24.29041778-24.60558222a9.08060445 9.08060445 0 0 0 7.39441778 3.80700444 9.08856889 9.08856889 0 0 0 7.86659555-4.53859555C502.41991111 729.68419555 497.20888889 759.62481778 497.20888889 796.44444445c0 64.61326222 16.42723555 119.30055111 47.50563556 158.14883555a9.08515555 9.08515555 0 0 0 7.11338666 3.41674667 9.10449778 9.10449778 0 0 0 7.10314667-14.78883556c-35.87527111-44.84437333-43.46652445-104.32967111-43.51658667-146.33642666a375.40977778 375.40977778 0 0 1 0.33336889-16.17123556c8.55836445 36.1984 26.84017778 89.30076445 65.37557333 137.47086222a9.10449778 9.10449778 0 0 0 14.21653334-11.37208889C525.48949333 819.50037333 524.51669333 713.30474667 524.51555555 712.24888889a9.10222222 9.10222222 0 0 0 9.10222223 9.10222222 9.08401778 9.08401778 0 0 0 7.39441777-3.80700444c6.48533333 8.64142222 14.69098667 17.02798222 24.29041778 24.60558222C592.92444445 763.9552 626.92807111 775.96444445 661.04888889 775.96444445c35.51914667 0 62.04757333-10.05226667 78.84686222-29.87804445C754.01443555 729.42592 761.17333333 705.792 761.17333333 675.84c0-5.36689778-0.24007111-10.52103111-0.69745778-15.47832889a855.36768 855.36768 0 0 0 56.59079112-21.65304889c75.1104-31.86460445 120.37916445-63.31505778 122.26901333-64.63829333a9.10108445 9.10108445 0 0 0 2.23687111-12.67370667z m-364.99114666 62.42304C590.72625778 612.65351111 620.50986667 593.92 661.04888889 593.92c45.56117333 0 71.27381333 17.3056 79.22346666 53.97731555-55.1424 17.79370667-122.52273778 33.14688-196.36337777 36.39296-0.77596445-2.93774222-1.18897778-5.77194667-1.18897778-8.45027555 0-15.36227555 13.29152-35.78197333 33.86140445-52.02033778zM369.77777778 593.92c40.53902222 0 70.32263111 18.73351111 84.46748444 29.89966222C474.81514667 640.05802667 488.10666667 660.47772445 488.10666667 675.84c0 2.67832889-0.41301333 5.51253333-1.18897778 8.45027555-73.84064-3.24494222-141.22097778-18.59925333-196.36337778-36.39296C298.50396445 611.2256 324.21660445 593.92 369.77777778 593.92z m84.46748444 133.94033778C440.10040889 739.02648889 410.3168 757.76 369.77777778 757.76c-55.88992 0-81.92-26.03008-81.92-81.92 0-3.30638222 0.09784889-6.50012445 0.28103111-9.59715555 53.95456 17.17361778 119.06958222 31.92945778 190.36046222 35.86389333-5.87434667 8.86328889-14.18922667 17.80849778-24.25400889 25.7536zM742.96888889 675.84c0 55.88992-26.03008 81.92-81.92 81.92-40.53902222 0-70.32263111-18.73351111-84.46748444-29.89966222-10.06364445-7.94510222-18.37852445-16.89031111-24.2540089-25.75473778 71.29088-3.93329778 136.40590222-18.69027555 190.36046223-35.86389333 0.18318222 3.09816889 0.28103111 6.29191111 0.28103111 9.59829333z" fill="#FFA000" p-id="1213"></path></svg>