<?xml version="1.0" standalone="no"?>
<svg viewBox="0 0 1024 1024" version="1.1" xmlns="http://www.w3.org/2000/svg" xmlns:xlink="http://www.w3.org/1999/xlink">
  <path d="M221.62758167 340.78380404v-48.39540231a290.37241833 290.37241833 0 0 1 580.74483666 0V340.78380404H899.16322405a48.39540342 48.39540342 0 0 1 48.39540345 48.39540342v580.74483667a48.39540342 48.39540342 0 0 1-48.39540345 48.39540341H124.83677595a48.39540342 48.39540342 0 0 1-48.39540345-48.39540341v-580.74483667A48.39540342 48.39540342 0 0 1 124.83677595 340.78380404h96.79080572z m629.1402401 96.79080686H173.23217823V921.52864067h677.53564354V437.5746109z m-387.16322519 277.40244993a96.79080573 96.79080573 0 1 1 96.79080684 0V824.73783495h-96.79080684v-109.76077412zM318.41838741 340.78380404h387.16322518v-48.39540231a193.58161259 193.58161259 0 0 0-387.16322518 0V340.78380404z"></path>
</svg>