<?xml version="1.0" encoding="utf-8"?>
<svg version="1.1" viewBox="0 0 400 400" xmlns="http://www.w3.org/2000/svg">
  <g transform="matrix(1.009026, 0, 0, 1.00899, 0, -32.492504)">
    <path d="M198.219,32.203C88.73,32.203,0,120.948,0,230.421c0,109.457,88.73,198.218,198.219,198.218 c109.457,0,198.203-88.761,198.203-198.218C396.422,120.948,307.676,32.203,198.219,32.203z M198.219,79.078 c28.223,0,51.088,22.895,51.088,51.104c0,28.224-22.865,51.102-51.088,51.102c-28.225,0-51.103-22.878-51.103-51.102 C147.115,101.972,169.994,79.078,198.219,79.078z M221.934,231.754c0,13.105-10.627,23.731-23.715,23.731 c-13.105,0-23.732-10.626-23.732-23.731c0-13.106,10.627-23.732,23.732-23.732C211.307,208.022,221.934,218.648,221.934,231.754z M96.631,282.858c-28.225,0-51.088-22.881-51.088-51.103c0-28.225,22.863-51.089,51.088-51.089s51.102,22.864,51.102,51.089 C147.732,259.977,124.855,282.858,96.631,282.858z M198.219,384.43c-28.225,0-51.103-22.864-51.103-51.088 c0-28.225,22.879-51.104,51.103-51.104c28.223,0,51.088,22.88,51.088,51.104C249.307,361.566,226.441,384.43,198.219,384.43z M299.791,282.858c-28.225,0-51.105-22.881-51.105-51.103c0-28.225,22.881-51.089,51.105-51.089 c28.207,0,51.104,22.864,51.104,51.089C350.895,259.977,327.998,282.858,299.791,282.858z"/>
  </g>
</svg>
