<?xml version="1.0" encoding="utf-8"?>
<svg viewBox="0 0 1024 1024" xmlns="http://www.w3.org/2000/svg">
  <path d="M511.5462931 17.79975521C231.04199992 17.68632849 3.84826793 244.76663375 3.84826793 525.04407347 3.84826793 746.67989589 145.97195549 935.08168762 343.90159221 1004.27199045c26.65528059 6.69217682 22.57191847-12.2500864 22.57191843-25.18073315v-87.90571258c-153.92006706 18.03484941-160.15853699-83.82235045-170.48036902-100.83635934C175.12262405 754.73319344 125.78199828 745.65905537 140.52747263 728.64504646c35.0488583-18.03484941 70.77827695 4.53706903 112.17903194 65.67407432 29.94465564 44.34984982 88.3594195 36.86368593 117.96379494 29.49094874 6.46532338-26.65528059 20.30338393-50.47489304 39.35907389-68.96344935-159.47797662-28.58353493-225.94603801-125.90366575-225.94603801-241.59892618 0-56.14622932 18.48855632-107.75538961 54.78510862-149.38299803-23.13905209-68.62316917 2.1551078-127.37821319 5.55790957-136.11207109 65.90092774-5.89818975 134.41067021 47.18551799 139.74172632 51.38230684 37.43081954-10.0949786 80.1926952-15.42603472 128.05877355-15.42603472 48.09293177 0 90.96823417 5.55790959 128.7393339 15.76631491 12.81722003-9.75469843 76.33618654-55.35224222 137.58661852-49.79433268 3.28937506 8.7338579 28.01640129 66.1277812 6.23846995 133.84353656 36.75025919 41.74103513 55.46566898 93.80390232 55.46566896 150.0635584 0 115.92211387-66.92176828 213.35567144-226.85345181 241.48549945 26.65528059 26.3150004 43.21558257 62.83840617 43.21558254 103.21832055v127.60506666c0.9074138 10.20840532 0 20.30338393 17.01400891 20.30338395 200.87873158-67.71575538 345.49780712-257.4786678 345.49780714-481.04274459 0-280.39086644-227.30715873-507.35774499-507.58459846-507.35774499z"></path>
</svg>