<svg viewBox="0 0 1024 1024" version="1.1" xmlns="http://www.w3.org/2000/svg">
  <path
    d="M973.6212981 1019.78342715c-18.46485228 0-32.31349119-9.2324256-41.54591679-27.69727786l-64.62698241-129.25396264h-300.05384318l-64.62698132 129.25396264c-9.2324256 23.08106452-36.92970347 32.31349119-60.01076906 18.46485227-27.69727787-9.2324256-36.92970347-36.92970347-23.08106453-55.39455573l78.47562026-152.33502825 156.95124159-313.9024821c13.84863893-23.08106452 36.92970347-41.54591679 64.62698132-41.54591679s50.77834239 13.84863893 64.62698133 41.54591679l156.95124159 313.9024821 78.47562025 152.33502825c9.2324256 23.08106452 0 50.77834239-18.46485118 60.01076907-13.84863893 4.61621333-18.46485228 4.61621333-27.69727787 4.61621225z m-360.06461223-244.65928744h207.72958397l-106.1728992-207.72958399-101.55668477 207.72958399zM50.3787019 872.06461224c-18.46485228 0-32.31349119-9.2324256-41.5459168-27.69727786-9.2324256-23.08106452 0-50.77834239 23.08106561-60.01076907 101.55668587-50.77834239 193.88094505-120.02153706 267.74035197-203.11337065-50.77834239-69.24319466-92.32425919-138.48638932-120.02153706-207.72958398-9.2324256-23.08106452 4.61621333-50.77834239 27.69727788-60.01076908 23.08106452-9.2324256 50.77834239 4.61621333 60.01076907 27.69727789 23.08106452 55.39455572 50.77834239 110.78911147 87.70804583 161.56745491 64.62698131-92.32425919 110.78911147-193.88094505 138.48638932-304.6700565H50.3787019c-27.69727787 0-46.16213013-18.46485228-46.16212905-46.16213014s18.46485228-46.16213013 46.16212905-46.16213014h263.1241397V50.3787019c0-27.69727787 18.46485228-46.16213013 46.16213014-46.16212905s46.16213013 18.46485228 46.16213014 46.16212905v55.39455572h258.50792638c27.69727787 0 46.16213013 18.46485228 46.16213014 46.16213014s-18.46485228 46.16213013-46.16213014 46.16213014h-73.859408c-27.69727787 138.48638932-92.32425919 267.74035305-175.41609279 378.52946341l27.69727787 27.69727788c18.46485228 18.46485228 18.46485228 46.16213013 0 64.62698241-18.46485228 18.46485228-46.16213013 18.46485228-64.62698133 0l-18.46485227-18.46485228c-78.47562026 87.70804693-175.41609279 161.56745386-286.20520424 216.96200958-9.2324256 0-18.46485228 4.61621333-23.0810656 4.61621334z"></path>
</svg>