<?xml version="1.0" standalone="no"?>
<svg viewBox="0 0 1024 1024" version="1.1" xmlns="http://www.w3.org/2000/svg" xmlns:xlink="http://www.w3.org/1999/xlink">
  <path d="M867.15703796 106.10624321H156.84296204a152.21015895 152.21015895 0 0 0-152.21015892 152.21015893v507.36719572a152.21015895 152.21015895 0 0 0 152.21015892 152.21015893h710.31407592a152.21015895 152.21015895 0 0 0 152.21015892-152.21015893V258.31640214a152.21015895 152.21015895 0 0 0-152.21015892-152.21015893zM156.84296204 816.42031791a50.73672004 50.73672004 0 0 1-50.73671883-50.73672005v-122.78286117l167.43117483-166.92380726a50.73672004 50.73672004 0 0 1 71.03140711 0L685.0122136 816.42031791z m761.05079475-50.73672005a50.73672004 50.73672004 0 0 1-50.73671883 50.73672005h-39.06727494l-193.30690187-194.32163587 44.6483137-44.64831369a50.73672004 50.73672004 0 0 1 71.03140711 0l167.43117483 166.92380726z m0-164.38697167l-95.38503252-94.87766494a155.25436213 155.25436213 0 0 0-215.12369171 0l-44.64831252 44.64831248-146.1217526-146.12175257a155.25436213 155.25436213 0 0 0-215.12369171 0L106.10624321 499.8231873V258.31640214a50.73672004 50.73672004 0 0 1 50.73671883-50.73672005h710.31407592a50.73672004 50.73672004 0 0 1 50.73671883 50.73672005z"></path>
</svg>