<?xml version="1.0" standalone="no"?>
<svg viewBox="0 0 1024 1024" version="1.1" xmlns="http://www.w3.org/2000/svg" xmlns:xlink="http://www.w3.org/1999/xlink">
  <path d="M266.3865271 1022.42549213c-70.85813611 0-136.69852235-27.01144052-185.65675828-77.61099622A259.1879026 259.1879026 0 0 1 4.80698762 760.84595268c0-70.85813611 27.01144052-136.69852235 77.61099623-185.65675936l129.94566223-129.898767c20.25858038-20.25858038 52.33466599-20.25858038 70.90503132 0 20.25858038 20.21168516 20.25858038 52.28777076 0 70.85813612l-129.94566222 129.89876807a160.75558654 160.75558654 0 0 0-47.27002086 114.79862217c0 43.89359083 16.88215032 82.67564133 47.27002086 114.75172692a160.70869241 160.70869241 0 0 0 114.75172694 47.2700209c42.20537579 0 82.67564133-16.88215032 114.75172804-47.2700209l165.39817789-165.39817787a161.97485369 161.97485369 0 0 0 0-227.81523993 185.89123331 185.89123331 0 0 0-47.2700209-33.76430065c-25.32322548-11.77060999-37.14073071-42.20537579-25.32322548-67.48170603 11.81750523-25.32322548 42.20537579-37.14073071 67.52860128-25.32322547 28.69965554 13.50572025 55.66420081 30.38787057 77.61099622 54.022881a261.76711927 261.76711927 0 0 1 0 371.2666224l-165.39817788 165.39817789C403.08505052 995.41405164 337.29155843 1022.42549213 266.3865271 1022.42549213z"></path>
  <path d="M507.70748728 676.48209522a44.97217229 44.97217229 0 0 1-20.25858039-5.06464508c-28.69965554-13.50572025-55.66420081-30.38787057-77.61099624-54.02288103a261.76711927 261.76711927 0 0 1-77.65789145-185.60986303c0-70.90503134 27.01144052-136.69852235 77.65789145-185.65675937l165.39817788-165.39817789a261.76711927 261.76711927 0 0 1 371.26662241 0 261.76711927 261.76711927 0 0 1 0 371.26662239l-129.94566222 129.94566224c-20.25858038 20.25858038-52.33466599 20.25858038-70.90503134 0-20.25858038-20.21168516-20.25858038-52.28777076 0-70.85813612l129.94566222-129.94566221a161.97485369 161.97485369 0 0 0 0-227.81523994 161.97485369 161.97485369 0 0 0-227.81523992 0l-165.39817788 165.39817789a160.75558654 160.75558654 0 0 0-47.22312567 114.75172804c0 43.8466956 16.88215032 82.67564133 47.22312567 114.75172694 13.50572025 13.50572025 30.38787057 25.32322548 47.27002089 33.76430062 25.32322548 11.77060999 37.14073071 42.20537579 25.32322546 67.48170604-10.12929019 16.88215032-28.69965554 27.01144052-47.27002087 27.01144051z"></path>
</svg>