<?xml version="1.0" standalone="no"?>
<svg viewBox="0 0 1024 1024" version="1.1" xmlns="http://www.w3.org/2000/svg">
  <path d="M849.55793629 403.83627416h-60.97820783V281.15392744c0-153.89738172-122.60975364-276.57972846-275.85379742-276.57972846-153.17145066 0-275.85379741 122.68234674-275.85379739 276.57972846v122.68234672h-60.97820786c-33.39282811 0-60.97820786 27.58537974-60.97820784 60.97820785v491.45531804c0 33.39282811 27.58537974 60.97820786 60.97820784 60.97820783h673.6640105c34.11875915 0 61.70413889-27.58537974 61.7041389-60.97820783V464.81448201c0-33.39282811-27.58537974-60.97820786-61.7041389-60.97820785z m-153.17145065 0H329.06537645V281.15392744c0-101.63034642 82.75613922-184.38648564 183.66055459-184.38648565a184.38648564 184.38648564 0 0 1 183.6605546 184.38648565v122.68234672z"></path>
</svg>