<?xml version="1.0" standalone="no"?>
<svg viewBox="0 0 1024 1024" version="1.1" xmlns="http://www.w3.org/2000/svg" xmlns:xlink="http://www.w3.org/1999/xlink">
  <path d="M512 5.08259007C231.95702696 5.08259007 5.08259007 231.95702696 5.08259007 512c0 280.04297304 227.03955656 506.91740993 506.91740993 506.91740993s506.91740993-227.03955656 506.91740993-506.91740993C1018.91740993 231.95702696 792.04297304 5.08259007 512 5.08259007zM741.35123205 705.19002267L282.64876795 705.19002267c-13.37469388 0-24.10747291-10.73277904-24.10747292-24.10747291 0-13.37469388 10.73277904-24.10747291 24.10747292-24.10747291l458.7024641 0c13.37469388 0 24.10747291 10.73277904 24.10747292 24.10747291C765.45870497 694.29212396 754.72592592 705.19002267 741.35123205 705.19002267zM741.35123205 536.10747291L282.64876795 536.10747291c-13.37469388 0-24.10747291-10.73277904-24.10747292-24.10747291 0-13.37469388 10.73277904-24.10747291 24.10747292-24.10747291l458.7024641 0c13.37469388 0 24.10747291 10.73277904 24.10747292 24.10747291C765.45870497 525.37469388 754.72592592 536.10747291 741.35123205 536.10747291zM741.35123205 379.24377929L282.64876795 379.24377929c-13.37469388 0-24.10747291-10.73277904-24.10747292-24.10747291 0-13.37469388 10.73277904-24.10747291 24.10747292-24.10747292l458.7024641 0c13.37469388 0 24.10747291 10.73277904 24.10747292 24.10747292C765.45870497 368.34588057 754.72592592 379.24377929 741.35123205 379.24377929z"></path>
</svg>