<svg viewBox="0 0 1024 1024" version="1.1" xmlns="http://www.w3.org/2000/svg">
  <path d="M472.94382491 862.40681177a356.42505956 356.42505956 0 0 0 74.9409092 0.32463651v145.53669402h-74.9159376v-145.86133053z m313.44828295-129.03021614l102.53494582 102.58489019-52.9405951 52.96556786-102.60986295-102.53494582c19.4781438-15.7323469 37.25819258-33.51239569 53.01551223-53.01551223z m-550.1576742-1.74803815c15.60748662 19.60300407 33.2626763 37.4579688 52.64093256 53.34014757L184.86707206 888.92705368l-52.9655679-52.9405951 104.3329295-104.33292952zM512 218.22963706c162.24294926 0 293.79533571 131.55238645 293.79533571 293.79533452 0 162.24294926-131.55238645 293.79533571-293.79533571 293.7953357-162.24294926 0-293.79533571-131.55238645-293.79533571-293.7953357 0-162.24294926 131.55238645-293.79533571 293.79533571-293.79533452z m496.2681423 254.76413102v74.91593761h-145.53669402a356.69975054 356.69975054 0 0 0-0.32463651-74.91593761h145.86133053z m-846.67495407 0a356.42505956 356.42505956 0 0 0-0.32463651 74.91593761H12.56041557v-74.91593761h149.03277266zM184.86707206 131.87653257l105.75633231 105.70638796c-19.4781438 15.7323469-37.25819258 33.51239569-53.01551223 53.01551225L131.92647691 184.86707206l52.94059515-52.9655679z m651.09441376 0l52.96556786 52.94059631-103.95834863 104.03326458a354.67702022 354.67702022 0 0 0-53.31517599-52.64093137l104.30795676-104.33292952zM547.88473411 12.56041557v148.70813615a356.69975054 356.69975054 0 0 0-74.9159376 0.32463651V12.56041557h74.9159376z"></path>
</svg>