<?xml version="1.0" standalone="no"?><!DOCTYPE svg PUBLIC "-//W3C//DTD SVG 1.1//EN" "http://www.w3.org/Graphics/SVG/1.1/DTD/svg11.dtd"><svg t="1641655510020" class="icon" viewBox="0 0 1024 1024" version="1.1" xmlns="http://www.w3.org/2000/svg" p-id="1603" xmlns:xlink="http://www.w3.org/1999/xlink" width="200" height="200"><defs><style type="text/css"></style></defs><path d="M418.92862822 980.46131336L40.04456306 601.57724822c-51.13897962-51.13897962-51.13897962-134.04539906 0-185.18437866l378.88406516-378.88406517c51.13897962-51.13897962 134.04539906-51.13897962 185.18437866 0l378.88406516 378.88406517c51.13897962 51.13897962 51.13897962 134.04539906 0 185.18437866L604.09729599 980.46131336c-51.13897962 51.13897962-134.04539906 51.13897962-185.16866777 0z" fill="#FA7268" p-id="1604"></path><path d="M362.35367721 486.30637469c-9.53651632 0-17.26627914 7.72976282-17.26627913 17.26627913v189.92907049c0 9.53651632 7.72976282 17.26627914 17.26627913 17.26627912s17.26627914-7.72976282 17.26627914-17.26627912V503.57265382c0-9.52080541-7.72976282-17.26627914-17.26627914-17.26627913zM483.95604345 296.25161701c3.770616 0.47132701 62.96928732 7.74547373 118.99435682 7.74547372 30.13350626 0 59.34006942-2.1052606 78.53878928-8.49959691 9.04947843-3.01649281 13.93556833-12.78867263 10.91907551-21.83815104-3.0322037-9.04947843-12.80438352-13.95127923-21.83815104-10.91907553-39.40293728 13.15002333-144.98018548 3.91201411-182.32499487-0.7541232-9.36369643-1.2254502-18.08324593 5.53023681-19.26156343 14.98819862-1.2097393 9.45796181 5.49881501 18.09895683 14.97248773 19.27727434zM386.68986137 433.21924349c9.50509451-8.48388603 16.88921754-16.74781942 22.60798512-25.27883817 12.52158734-18.66454924 18.69597103-41.30395619 17.36054455-63.73912142-0.37706159-6.41004721-4.28907571-12.08168212-10.13353052-14.72111333a17.28827441 17.28827441 0 0 0-17.75331704 2.15239332c-17.86329333 13.99841193-44.69751059 14.94106593-68.31099334 14.65826972-17.34483364-0.17281989-35.67945397-0.7698341-52.4744061-5.73447851a17.2395706 17.2395706 0 0 0-21.44537855 11.67319872c-2.70227481 9.14374383 2.5294549 18.74310373 11.67319872 21.44537854 21.05260603 6.22151641 42.98502249 6.94421782 61.90094614 7.14845952 19.54435964 0.2827962 39.32438277-0.6441469 57.6432922-5.90729841a68.55294118 68.55294118 0 0 1-7.11703772 13.77845933c-4.08483399 6.09582922-9.63078173 12.23879114-16.95206112 18.77452554-5.75018942 5.13746431-11.59464423 10.54201393-17.53336444 16.05653982-37.81613636 35.05101795-76.85772295 71.31177524-118.58587342 63.09497453-9.36369643-1.7596208-18.44459663 4.25765391-20.28277195 13.60563943s4.25765391 18.42888573 13.60563941 20.28277193c6.52002352 1.2725829 12.88293803 1.885308 19.12016535 1.88530801 50.25916921 0 92.16013959-38.82163398 129.59921436-73.52701215 5.7973221-5.35741691 11.48466791-10.63627932 17.07774835-15.64805642zM555.15784238 313.65929424c-33.32281898 0-60.43983242 27.11701346-60.43983241 60.43983242 0 33.32281898 27.11701346 60.42412151 60.43983241 60.42412152h51.79883742c33.32281898 0 60.43983242-27.11701346 60.43983241-60.42412152 0-33.32281898-27.11701346-60.43983242-60.43983241-60.43983242h-51.79883742z m77.69040066 60.42412154c0 14.28120813-11.61035514 25.89156325-25.89156324 25.89156324h-51.79883742c-14.28120813 0-25.89156325-11.61035514-25.89156324-25.89156324s11.61035514-25.89156325 25.89156324-25.89156326h51.79883742c14.28120813 0 25.89156325 11.61035514 25.89156324 25.89156326zM618.45705861 452.16658892H558.0329371c-79.12009255 0-143.50336089 64.38326833-143.50336089 143.50336088v5.75018942c0 79.13580347 64.38326833 143.51907178 143.50336089 143.51907179h60.42412151c79.13580347 0 143.51907178-64.38326833 143.51907178-143.51907179v-5.75018942c0-79.12009255-64.38326833-143.50336089-143.51907178-143.50336088z m109.74063671 149.2378394c0 60.51838691-49.2222498 109.74063671-109.74063671 109.7406367H558.0329371c-60.50267601 0-109.72492581-49.2222498-109.72492583-109.7406367v-5.75018941c0-60.50267601 49.2222498-109.72492581 109.72492583-109.7249258h60.42412151c60.51838691 0 109.74063671 49.2222498 109.74063671 109.7249258v5.75018941zM430.64895965 504.59386234c7.30556852-6.1115401 8.27964432-17.01490473 2.16810419-24.32047326-13.36997593-15.99369623-32.96146827-26.03296137-53.76269988-27.52549685-9.70933622-0.72270141-17.78473884 6.45717993-18.47601846 15.96227443-0.69127958 9.52080541 6.45717993 17.78473884 15.96227443 18.47601844 11.34326981 0.81696681 22.48229795 6.52002352 29.77215556 15.25528391a17.20343554 17.20343554 0 0 0 13.24428872 6.19009462c3.92772502-0.01571091 7.85545002-1.33542651 11.09189544-4.03770129zM316.7606453 291.7582996l30.29061527 17.09345924c2.6865639 1.50824641 5.59308042 2.23094781 8.46817513 2.2309478 6.03298562 0 11.87744042-3.1578909 15.05104223-8.7823931 4.6818482-8.31106613 1.7439099-18.83736913-6.55144533-23.51921736l-30.27490437-17.07774834c-8.29535522-4.71327001-18.83736913-1.7596208-23.51921733 6.53573442-4.6975591 8.29535522-1.7753317 18.83736913 6.5357344 23.51921734z" fill="#FFFFFF" p-id="1605"></path><path d="M603.68881258 590.29682199v-69.44217812c0-9.31656372-7.55694291-16.88921754-16.88921754-16.88921755s-16.88921754 7.55694291-16.88921753 16.88921755v69.44217812h-86.70845728c-9.31656372 0-16.88921754 7.55694291-16.88921753 16.88921754s7.55694291 16.88921754 16.88921753 16.88921753h86.70845728v52.17589901c0 9.31656372 7.55694291 16.88921754 16.88921753 16.88921751s16.88921754-7.55694291 16.88921754-16.88921751v-52.17589901h86.70845729c9.31656372 0 16.88921754-7.55694291 16.88921752-16.88921753s-7.55694291-16.88921754-16.88921752-16.88921754h-86.70845729z" fill="#FFFFFF" p-id="1606"></path></svg>