<svg viewBox="0 0 1024 1024" version="1.1" xmlns="http://www.w3.org/2000/svg">
  <path d="M914.77333333 234.66666668l-808.96 0c-44.37333333 0-78.50666667 34.13333333-78.50666666 78.50666667l0 385.70666666c0 44.37333333 34.13333333 78.50666667 78.50666666 78.50666667l808.96 0c44.37333333 0 78.50666667-34.13333333 78.50666667-78.50666667l0-385.70666666C993.28 268.80000001 959.14666667 234.66666668 914.77333333 234.66666668zM307.2 634.02666668l-54.61333333 0-105.81333334-208.21333333 0 208.21333333-34.13333333 0 0-249.17333333 47.78666667 0 109.22666666 215.04 3.41333334 0 0-215.04 34.13333333 0L307.2 634.02666668zM392.53333333 490.66666668l133.12 0 0 34.13333333-133.12 0c0 3.41333333 0 3.41333333 0 6.82666667l0 0c0 44.37333333 13.65333333 64.85333333 40.96 64.85333333l95.57333334 0 0 34.13333334-95.57333334 0c-20.48 0-37.54666667-6.82666667-51.2-23.89333334-13.65333333-17.06666667-20.48-44.37333333-20.48-75.09333333 0-13.65333333 0-30.72 0-58.02666667 0-58.02666667 37.54666667-81.92 75.09333334-88.74666666l0 0c13.65333333 0 85.33333333 0 92.16 0l0 34.13333333c-30.72 0-78.50666667 0-88.74666667 0-13.65333333 3.41333333-44.37333333 13.65333333-44.37333333 54.61333333C392.53333333 480.42666668 392.53333333 483.84000001 392.53333333 490.66666668zM836.26666667 634.02666668l-47.78666667 0-47.78666667-197.97333333-54.61333333 197.97333333-51.2 0-71.68-249.17333333 37.54666667 0 61.44 204.8 3.41333333 0 54.61333333-204.8 40.96 0 54.61333334 215.04 64.85333333-215.04 34.13333333 0L836.26666667 634.02666668z"></path>
</svg>
