<svg viewBox="0 0 1024 1024"
  xmlns="http://www.w3.org/2000/svg">
  <path
    d="M113.68359652 167.85491122m-73.74537611 0a73.74537608 73.74537608 0 1 0 147.49075217 0 73.74537608 73.74537608 0 1 0-147.49075217 0Z"
  ></path>
  <path
    d="M113.68359652 512m-73.74537611 0a73.74537608 73.74537608 0 1 0 147.49075217 0 73.74537608 73.74537608 0 1 0-147.49075217 0Z"
  ></path>
  <path
    d="M113.68359652 856.14508878m-73.74537611 0a73.74537608 73.74537608 0 1 0 147.49075217 0 73.74537608 73.74537608 0 1 0-147.49075217 0Z"
  ></path>
  <path
    d="M949.46452508 819.27240073H334.91972473c-19.66543402 0-36.87268804 17.20725402-36.87268801 36.87268805s17.20725402 36.87268804 36.87268801 36.87268802h614.54480035c19.66543402 0 36.87268804-17.20725402 36.87268802-36.87268802s-17.20725402-36.87268804-36.87268802-36.87268805zM334.91972473 204.72759927h614.54480035c19.66543402 0 36.87268804-17.20725402 36.87268802-36.87268805s-17.20725402-36.87268804-36.87268802-36.87268802H334.91972473c-19.66543402 0-36.87268804 17.20725402-36.87268801 36.87268802s17.20725402 36.87268804 36.87268801 36.87268805zM949.46452508 475.12731196H334.91972473c-19.66543402 0-36.87268804 17.20725402-36.87268801 36.87268804s17.20725402 36.87268804 36.87268801 36.87268804h614.54480035c19.66543402 0 36.87268804-17.20725402 36.87268802-36.87268804s-17.20725402-36.87268804-36.87268802-36.87268804z"
  ></path>
</svg>