<svg viewBox="0 0 1024 1024" version="1.1" xmlns="http://www.w3.org/2000/svg" xmlns:xlink="http://www.w3.org/1999/xlink">
  <path d="M913.33988813 232.15517057c-22.02696498-29.9527095-52.67317712-65.05715293-86.25851953-98.6094714s-68.6567619-64.29760242-98.6094714-86.22549559c-51.02198034-37.41611892-75.7238841-41.6762066-89.92417636-41.67620661l-490.50451398 0c-43.69066667 0-79.15837339 35.43468279-79.1583734 79.12534947l0 854.46130712c0 43.69066667 35.46770673 79.15837339 79.1583734 79.1583734l727.81451448 0c43.55857092 0 79.22442126-35.43468279 79.22442127-79.1583734l0-617.08525875c-0.03302394-14.2333162-4.39218343-39.00126783-41.77527842-89.9572003l0 0 0 0zM782.23486419 178.3261557c30.44806853 30.41504459 54.2253021 57.75886319 71.79403578 80.47933082l-152.27336659 0 0-152.27336659c22.72046763 17.60175762 50.09731015 41.44503906 80.47933081 71.76101184l0 0 0 0 0 0zM891.80828219 939.19762963c0 8.65227111-7.23224188 15.88451298-15.88451298 15.88451298l-727.81451448 0c-8.65227111 0-15.88451298-7.23224188-15.88451298-15.88451298l0-854.42828319c0-8.5531993 7.23224188-15.81846511 15.88451298-15.81846511l490.50451398 0 0 221.55758327c0 17.40361401 14.16726833 31.66995414 31.66995414 31.66995414l221.55758327 0 0.03302394 617.05223482zM788.44336407 833.25684455l-178.46134744-178.49437139c29.9527095-37.54821466 47.91773041-85.10268178 47.91773041-136.95026051 0-121.36296297-98.37830386-219.70824289-219.70824289-219.70824288-121.3959869 0-219.70824289 98.34527992-219.70824287 219.70824288s98.37830386 219.70824289 219.70824287 219.70824288c47.78563467 0 86.4236392-9.64298917 122.48577677-35.59980247l179.55113733 179.55113731c6.76990677 6.76990677 17.63478156 6.76990677 24.33864045 0l23.87630537-23.81025749c6.63781104-6.73688284 6.63781104-17.66780549 0-24.40468833l0 0 0 0zM438.15848022 661.46633207c-79.35651701 0-143.68714337-64.33062636-143.68714336-143.68714336s64.33062636-143.68714337 143.68714336-143.68714336 143.68714337 64.33062636 143.68714336 143.68714336-64.29760242 143.68714337-143.68714336 143.68714336l0 0 0 0z"></path>
</svg>