<?xml version="1.0" standalone="no"?><!DOCTYPE svg PUBLIC "-//W3C//DTD SVG 1.1//EN" "http://www.w3.org/Graphics/SVG/1.1/DTD/svg11.dtd"><svg t="1641655504899" class="icon" viewBox="0 0 1024 1024" version="1.1" xmlns="http://www.w3.org/2000/svg" p-id="1339" xmlns:xlink="http://www.w3.org/1999/xlink" width="200" height="200"><defs><style type="text/css"></style></defs><path d="M356.09766587 218.63167576c10.94657926 27.07838028 22.81497572 68.32970003 14.28816661 111.6551085-15.90134672 80.42855078-91.83603865 114.07487864-120.75805332 124.90623071l-9.21817203-4.14817738c-11.06180643-28.80678753-36.29655229-107.96783969 13.48157656-173.18640666 26.73269882-35.14428079 65.56424843-53.58062482 92.98831018-63.25970541M503.35796374 467.29186574c10.94657926 27.07838028 22.81497572 68.32970003 14.28816664 111.65510847-15.90134672 80.42855078-91.83603865 114.07487864-120.75805337 124.90623076l-9.218172-4.14817741c-11.06180643-28.80678753-36.29655229-107.96783969 13.48157657-173.18640664 26.73269882-35.14428079 65.56424843-53.58062482 92.98831015-63.25970543M609.82785046 717.45000868c9.56385346 27.53928889 19.35816123 69.36674437 8.64203626 112.23124425-19.93429698 79.62196075-97.36694186 109.23533831-126.86509229 118.6839646l-8.98771771-4.60908599c-9.56385346-29.38292328-30.76564907-109.58101978 22.12361283-172.26458945 28.46110607-33.761555 68.09924572-50.23903747 96.09944319-58.53539226M412.55896944 241.21619721c16.93839107 23.73679292 45.39949716 55.88516782 86.53558974 72.01696881 76.39560052 29.84383187 145.5318906-16.24702817 170.19050075-34.79859934l1.49795296-10.02476205c-18.43634402-24.77383727-71.55606023-88.4944513-153.36733685-81.69604946-44.01677135 3.68726882-80.42855078 26.50224455-103.35875364 44.47767996M546.56814505 482.84753101c15.20998381 24.88906443 41.36654691 58.99630086 81.23514083 77.8935535 74.09105752 35.14428079 146.22325351-5.87658466 172.1493623-22.69974857l2.18931584-9.90953492c-16.59270961-26.04133594-65.10333981-93.3339916-147.14507071-92.29694725-44.1319985 0.57613575-82.0417309 20.74088702-106.2394324 37.10314233M641.51531672 742.10861881c6.45272041 28.46110607 20.16475127 69.13629007 51.85221758 99.90193916 58.88107372 57.15266647 140.34666885 41.48177405 170.30572789 33.87678213l5.30044891-8.7572634c-7.3745376-30.07428618-31.57223913-109.35056547-109.69624691-134.70053849-41.94268264-13.59680372-84.34627388-6.68317471-112.57692569 0.9218172" fill="#C6EFA5" p-id="1340"></path><path d="M600.14876985 1014.62082886c-11.75316931 0-21.89315852-8.9877177-22.93020288-20.97134132-7.83544623-88.4944513-23.27588432-176.64322114-45.97563291-262.02653939-31.11133053-117.41646599-76.16514623-230.56952742-133.77872131-336.46327839-68.90583577-126.74986514-155.78710698-243.24451392-258.33927057-346.25758611-8.9877177-8.9877177-8.9877177-23.62156578 0.11522716-32.60928351 8.9877177-8.9877177 23.62156578-8.9877177 32.60928347 0.11522716 105.54806953 106.12420528 195.07956518 226.19089571 266.05948967 356.74325679 59.34198233 109.12011116 105.77852381 225.72998711 137.81167155 346.71849474 23.39111148 87.91831556 39.2924582 178.71730986 47.3583587 269.74675847 1.15227152 12.67498648-8.2963548 23.85202008-20.97134132 25.00429156h-1.95886156z" fill="#7DC453" p-id="1341"></path><path d="M179.45444474 478.12321787c-3.2263602 0-6.45272041-0.69136291-9.44862633-2.07408873l-9.21817202-4.14817738c-5.53090321-2.53499729-9.90953491-7.02885616-12.09885074-12.79021368-10.48567066-27.19360743-16.36225532-54.15676055-17.62975398-80.08286933-2.07408871-44.01677135 9.44862631-82.84832094 34.22246359-115.22715013 23.73679292-31.22655768 58.65061943-55.07857775 103.70443511-71.09515163 7.60499189-2.65022447 15.55566526-1.15227152 21.54747707 3.34158736 7.25931045 1.49795295 13.71203087 6.45272041 16.82316393 13.94248518 17.86020827 44.24722565 23.16065717 86.1899083 15.55566527 124.67577642-7.95067336 40.09904824-29.38292328 74.43673899-63.60538686 101.97602787-20.16475127 16.24702817-44.36245281 29.72860473-71.6712874 39.98382108-2.76545159 1.03704434-5.53090321 1.49795295-8.18112764 1.49795297z m90.45331285-236.33088492c-29.38292328 12.44453222-52.19789901 29.26769613-67.98401859 49.893356-15.78611958 20.74088702-37.67927809 65.10333981-15.55566527 135.62235569 67.52310996-30.30474049 86.1899083-75.93469193 91.2599029-101.63034641 4.95476745-25.46520016 2.41977013-53.58062482-7.72021904-83.88536528zM326.71474258 726.78340784c-3.2263602 0-6.45272041-0.69136291-9.44862629-2.0740887l-9.21817202-4.14817742c-5.53090321-2.53499729-9.90953491-7.02885616-12.09885075-12.79021366-10.48567066-27.19360743-16.36225532-54.15676055-17.62975399-80.08286934-2.07408871-44.01677135 9.44862631-82.84832094 34.22246358-115.22715012 23.73679292-31.22655768 58.65061943-55.07857775 103.70443514-71.09515164 7.60499189-2.65022447 15.55566526-1.15227152 21.54747707 3.34158738 7.25931045 1.49795295 13.71203087 6.45272041 16.82316391 13.94248516 17.86020827 44.24722565 23.16065717 86.1899083 15.55566527 124.67577642-7.95067336 40.09904824-29.38292328 74.43673899-63.60538687 101.97602787-20.16475127 16.24702817-44.36245281 29.72860473-71.67128738 39.9838211-2.65022447 1.03704434-5.41567604 1.49795295-8.18112767 1.49795295z m90.56854002-236.33088491c-29.38292328 12.44453222-52.19789901 29.26769613-67.98401859 49.89335601-15.78611958 20.74088702-37.67927809 65.10333981-15.55566526 135.6223557 67.52310996-30.30474049 86.1899083-75.93469193 91.2599029-101.63034642 4.95476745-25.34997303 2.30454299-53.58062482-7.72021905-83.88536529zM421.43146 971.29542042c-3.57204166 0-7.25931045-0.80659004-10.48567067-2.53499731l-8.98771772-4.60908602c-5.41567604-2.76545159-9.56385346-7.60499189-11.40748785-13.36634941-14.40339377-43.9015442-30.07428618-127.44122806 26.38701738-194.2729751 25.34997303-29.95905904 61.30084386-52.08267186 107.04602247-65.79470272 7.72021905-2.30454299 15.67089241-0.34568144 21.31702278 4.37863171 7.25931045 1.84363441 13.36634941 7.14408331 16.01657387 14.7490752 15.67089241 45.16904285 18.78202547 87.22695265 9.21817201 125.36713935-9.90953491 39.63813964-33.07019209 72.82355889-68.67538149 98.74966767-20.97134133 15.20998381-45.74517861 27.42406173-73.51492177 36.29655227-2.18931586 0.69136291-4.49385885 1.03704434-6.91362901 1.03704436z m101.16943782-231.49134461c-29.95905904 11.06180643-53.58062482 26.61747167-70.40378875 46.4365415-16.82316393 19.93429698-40.90563828 63.02925112-22.35406711 134.7005385 68.90583577-26.84792599 89.8771771-71.55606023 96.21467037-96.90603326 6.22226611-25.23474588 5.0699946-53.58062482-3.45681451-84.23104674z" fill="#7DC453" p-id="1342"></path><path d="M480.88866947 346.07290381c-20.62565987 0-40.79041114-3.80249597-60.26379953-11.40748786-36.5270066-14.2881666-69.13629007-41.13609262-96.90603325-80.08286933-4.609086-6.56794756-5.41567604-14.63384807-2.76545161-21.66270423-0.57613575-7.48976475 2.41977013-14.97952954 8.75726341-19.93429698 37.56405093-29.38292328 76.51082768-45.97563289 115.57283158-49.31722025 40.675184-3.45681452 79.62196075 7.72021905 115.57283157 33.0701921 21.20179563 14.97952954 40.79041114 34.4529179 58.18971082 57.84402936 3.57204166 4.83954032 5.18522176 10.94657926 4.26340456 17.05361822l-1.49795295 10.02476205c-0.92181719 5.99181181-4.03295026 11.40748787-8.98771771 15.09475667-23.27588432 17.51452681-47.58881301 30.65042192-72.13219597 38.94677674-20.16475127 6.91362901-40.21427538 10.3704435-59.80289092 10.37044351z m-110.27238269-105.89375097c20.16475127 24.77383727 42.5188184 42.0579098 66.71651992 51.50653611 24.31292868 9.44862631 72.93878603 18.32111686 134.70053851-22.35406713-47.70404016-56.57653071-96.79080611-61.87697962-122.83214203-59.68766377-25.92610879 2.18931586-52.31312618 12.44453222-78.5849164 30.53519479zM619.04602246 597.61377256c-24.88906443 0-48.74108451-5.41567604-71.32560594-16.01657388-35.48996225-16.82316393-66.02515704-45.97563289-91.02944859-86.65081689-4.14817741-6.79840185-4.3786317-14.97952954-1.26749864-21.77793138 0-7.48976475 3.57204166-14.86430235 10.13998921-19.24293407 39.63813964-26.61747167 79.62196075-40.4447297 118.79919178-41.02086546 40.79041114-0.57613575 78.81537069 13.25112226 113.03783427 41.13609261 20.16475127 16.36225532 38.25541384 37.21836949 53.92630627 61.76175248 3.2263602 5.18522176 4.3786317 11.2922607 3.11113304 17.2840725l-2.18931583 9.90953493c-1.26749866 5.99181181-4.83954032 11.17703356-10.02476208 14.40339376-24.42815582 15.90134672-49.6629017 27.19360743-74.78242044 33.76155498-16.36225532 4.26340456-32.60928348 6.45272041-48.39540305 6.45272042z m-114.53578721-113.84442435c18.32111686 26.15656308 39.40768535 45.05381569 62.91402397 56.11562213 23.62156578 11.17703356 71.44083308 23.39111148 135.96803715-12.79021366-43.55586275-59.80289093-92.18172011-68.56015432-118.33828319-68.21447288-25.92610879 0.34568144-53.00448905 8.64203626-80.54377793 24.88906441zM733.81226401 906.76821634c-5.53090321 0-10.94657926-0.2304543-16.24702819-0.57613575-43.9015442-3.2263602-81.1199137-19.24293406-110.38760981-47.70404015-28.11542463-27.30883457-47.70404016-64.75765838-58.30493797-111.42465417-1.72840725-7.83544623 0.69136291-15.67089241 5.87658466-20.97134133 2.30454299-7.02885616 8.06590051-12.90544082 15.78611957-14.97952952 46.09086005-12.55975936 88.37922414-12.67498648 125.71282079-0.57613575 38.83154959 12.55975936 70.40378874 37.90973238 93.7949002 75.35855618 13.71203087 22.00838569 24.19770152 47.47358584 31.11133054 75.93469193 1.38272579 5.87658466 0.4609086 12.09885076-2.65022446 17.39929967l-5.18522176 8.75726342c-3.11113303 5.18522176-8.18112766 8.9877177-14.05771231 10.48567068-22.46929428 5.41567604-44.36245281 8.2963548-65.44902126 8.29635479zM597.72899971 752.01815372c8.87249057 30.65042192 22.81497572 55.30903207 41.48177402 73.39969464 18.78202547 18.20588971 60.14857236 45.16904285 132.85690411 31.57223913-22.00838569-70.63424304-65.21856697-94.60149025-89.99240424-102.66739076-24.77383727-7.95067336-53.1197162-8.75726341-84.34627389-2.30454301z" fill="#7DC453" p-id="1343"></path></svg>