<svg viewBox="0 0 1024 1024" version="1.1" xmlns="http://www.w3.org/2000/svg"><path d="M512 3.84826793C231.3822801 3.84826793 3.84826793 231.3822801 3.84826793 512s227.53401216 508.15173207 508.15173207 508.15173207 508.15173207-227.53401216 508.15173207-508.15173207S792.6177199 3.84826793 512 3.84826793z m0 803.06121943c-25.06730641 0-45.37069036-20.30338393-45.37069036-45.37069036s20.30338393-45.37069036 45.37069036-45.37069035 45.37069036 20.30338393 45.37069036 45.37069035-20.30338393 45.37069036-45.37069036 45.37069036z m71.3454106-248.97166337c-20.9839443 8.05329754-35.0488583 28.47010821-35.04885831 50.8151732V634.50086398c0 4.99077593-4.08336214 9.07413807-9.07413809 9.07413807h-54.4448284c-4.99077593 0-9.07413807-4.08336214-9.07413809-9.07413807v-24.38674607c0-26.20157368 7.59959063-52.0628672 22.57191846-73.61394511 14.63204763-21.09737102 35.0488583-37.2039661 59.09532419-46.3915309 38.56508681-14.85890111 63.51896651-47.18551799 63.51896651-82.46122975 0-50.02118612-48.88691886-90.74138073-108.88965687-90.74138072s-108.88965687 40.72019461-108.88965687 90.74138072v8.62043119c0 4.99077593-4.08336214 9.07413807-9.07413807 9.07413807h-54.44482844c-4.99077593 0-9.07413807-4.08336214-9.07413807-9.07413807V407.64741215c0-44.57670328 19.50939686-86.2043117 54.89853533-117.16980784C419.44379165 260.64637539 464.3607751 244.31292685 512 244.31292685s92.55620835 16.44687526 126.58422612 46.16467746C673.97336459 321.44310046 693.48276145 363.0707089 693.48276145 407.64741215c0 65.56064758-43.21558257 124.54254504-110.13735085 150.29041184z"></path></svg>