<?xml version="1.0" encoding="utf-8"?>
<svg viewBox="0 0 1024 1024" xmlns="http://www.w3.org/2000/svg">
  <path d="M1017.513599 83.329295c-2.85229 94.564393-23.184 185.325732-57.338348 273.381052-40.66342 105.315333-100.268973 197.905064-183.863019 274.478087a23.403407 23.403407 0 0 0-8.044921 21.648152c2.925426 28.376631 5.265767 56.753263 8.191192 85.056759 6.801615 66.04149-16.382385 120.16187-69.625137 158.484949-57.118941 41.17537-116.505087 79.205907-175.525555 117.748394a55.144279 55.144279 0 0 1-86.958285-41.906727 6562.315429 6562.315429 0 0 1-11.994247-152.049012c-1.755256-25.37807-1.023899-25.597477-25.597477-28.815445-65.236998-8.630006-116.28568-39.566386-151.390791-95.807699a212.605329 212.605329 0 0 1-30.058751-94.564393c-0.950763-10.019584-4.973224-12.579331-14.480859-13.091281-52.877074-2.925426-105.607876-5.997123-158.265542-9.946449-43.881389-3.36424-66.114626-49.585969-42.564947-88.201591 16.528656-27.06019 34.008076-53.60843 51.121818-80.376077l54.924871-86.592608c33.715534-52.730802 82.35074-81.180569 144.442905-81.765654 35.617061-0.292543 71.234121 5.997123 106.778046 9.800177 6.801615 0.731356 11.555432-0.146271 16.162979-5.338903C466.070813 153.173839 568.314449 90.789131 684.015044 49.101811a848.373517 848.373517 0 0 1 201.708118-46.075458c34.812568-3.583647 69.844544-4.900088 104.583976 1.462713 19.015268 3.583647 19.966032 4.388139 22.891458 22.891458 2.925426 18.503319 5.265767 37.079774 4.388139 55.875635z m-199.221505 233.010174c0.731356-62.311572-50.829275-115.920002-112.190084-116.943901-63.628014-1.023899-118.845428 45.344102-120.308141 117.602122-1.316442 60.33691 53.315887 114.896103 114.237882 115.334917a117.017037 117.017037 0 0 0 118.260343-115.993138z"></path>
</svg>