<svg viewBox="0 0 1024 1024" version="1.1" xmlns="http://www.w3.org/2000/svg">
  <path d="M880.99557121 3.43638715q27.86894655 0 51.98630413 10.71882561t42.33936113 28.94082912 28.94082911 42.33936109 10.71882561 51.98630415l0 737.45520119q0 27.86894655-10.71882561 51.98630413t-28.94082911 42.33936113-42.33936113 28.94082911-51.98630413 10.71882561l-737.45520117 0q-27.86894655 0-51.98630416-10.71882561t-42.33936111-28.94082911-28.94082911-42.33936113-10.71882561-51.98630413l0-737.45520119q0-27.86894655 10.71882561-51.98630415t28.94082911-42.33936109 42.33936111-28.94082912 51.98630416-10.71882561l737.45520117 0zM206.78144107 903.81773742q20.36576863 0 38.58777215-7.50317792t31.6205355-20.90170993 20.90170992-31.6205355 7.50317793-38.58777215-7.50317793-38.58777216-20.90170992-31.62053552-31.6205355-20.90170991-38.58777215-7.50317791q-21.43765121 0-39.12371344 7.50317791t-31.62053552 20.90170991-21.43765118 31.62053552-7.50317793 38.58777216 7.50317793 38.58777215 21.43765118 31.6205355 31.62053552 20.90170993 39.12371344 7.50317792zM476.89584615 875.94879086l38.58777215 0q16.07823839 0 31.62053552 0.53594128t32.69241807 0.53594128 38.58777217-1.07188256q0-97.54131295-37.51588962-183.82785901t-101.82884316-150.59949965-150.59949968-101.2929019-183.827859-36.97994833q-1.07188255 25.72518145-1.07188256 41.80341982l0 30.01271168q0 15.00635583 0.53594127 30.54865296t0.53594129 39.12371345q68.60048385 0 129.16184846 25.72518142t105.58043214 70.74424894 71.28019023 105.58043215 26.26112272 129.16184847zM750.22589889 873.80502574q38.58777217 0 51.45036288 0.53594129t19.29388609 1.60782383 16.61417968 1.07188256 43.41124367-2.14376511q0-152.2073235-57.88165822-285.65670221t-157.56673632-233.13445676-233.67039804-157.5667363-286.19264346-57.88165823q-1.07188255 26.79706399-1.07188257 38.58777215l0 17.15012097q0 4.28753023 0.53594128 5.89535406t0.53594129 7.50317793 0.53594124 19.29388608 0.53594131 42.33936112q125.41025951 0 235.27822188 47.16283262t191.86697822 129.16184846 129.16184845 191.86697822 47.16283262 234.20633932z"></path>
</svg>
