<?xml version="1.0" standalone="no"?><!DOCTYPE svg PUBLIC "-//W3C//DTD SVG 1.1//EN" "http://www.w3.org/Graphics/SVG/1.1/DTD/svg11.dtd"><svg t="1647655214799" class="icon" viewBox="0 0 1024 1024" version="1.1" xmlns="http://www.w3.org/2000/svg" p-id="909" xmlns:xlink="http://www.w3.org/1999/xlink" width="200" height="200"><defs><style type="text/css"></style></defs><path d="M182.8073255 1011.6132781h658.91798522c113.4516289 0 169.88796738-56.43633848 169.88796738-168.24374051V180.6073052c0-111.80740327-56.43633848-168.2437405-169.88796738-168.24374178H182.8073255c-112.89583418 0-170.44376209 55.903701-170.44376208 168.24374178V843.3926948c0 112.3400395 57.54792789 168.2437405 170.44376208 168.24374178z m1.62106836-87.37558625c-54.2594754 0-84.6660857-28.76238469-84.66608571-85.22188169V185.00734708c0-56.45949568 30.40661158-85.22188167 84.66608571-85.22188041h282.25116538v824.47538362z m655.67584847-824.4753837c53.72683791 0 84.13344949 28.76238469 84.13344952 85.22188169V838.99265292c0 56.45949568-30.40661158 85.22188167-84.13344952 85.22188041H557.85307698V99.76230815z" p-id="910"></path></svg>