<?xml version="1.0" standalone="no"?>
<svg viewBox="0 0 1024 1024" version="1.1" xmlns="http://www.w3.org/2000/svg" xmlns:xlink="http://www.w3.org/1999/xlink">
  <path d="M245.97579193 1013.48365425c5.01809543 0 2.54163206 0.84721104 4.8225851 0.19551033-7.82040755 2.21578225-14.33741475 3.38884309-22.67918243 3.38884309C140.53062679 1017.06800767 72.10205776 949.48664968 72.10205776 862.48461286V161.51538714C72.10205776 74.51335032 140.53062679 6.93199233 228.1191946 6.93199233h567.89195139c87.58856779 0 156.01713682 67.51618825 155.88679625 154.58339481v700.96922572c0 87.0020379-68.42856903 154.58339589-156.01713684 154.58339481-7.69006806 0-11.07891114-0.13034058-16.94421653-1.10789111a84.26489446 84.26489446 0 0 1-26.19836719-9.51482964l-199.876591-120.95564073a81.46258233 81.46258233 0 0 0-84.78625461 0.26068008l-208.28352954 127.73332798h-13.8160546z m357.45781043-211.67237262l193.81577423 117.50162788c33.10639286-0.65170072 56.89346749-24.50394509 56.89346749-56.82829665V161.38504765c0-32.7153733-24.24326394-56.69795717-58.13169809-56.69795716H228.1191946c-33.88843416 0-58.26203868 24.11292444-58.26203868 56.82829665v700.96922572c0 31.933332 23.13537284 55.5248963 55.59006605 56.76312692l1.88993134-0.52136015 189.6448909-116.32856704a179.2176805 179.2176805 0 0 1 186.45155815-0.58653096zM347.18490401 355.65701228a48.87754961 48.87754961 0 0 1 0-97.75509817h329.63019198a48.87754961 48.87754961 0 1 1 0 97.75509817H347.11973425z m0 195.51019738a48.87754961 48.87754961 0 0 1 0-97.75509816h329.63019198a48.87754961 48.87754961 0 1 1 0 97.75509816H347.11973425z"></path>
</svg>