<?xml version="1.0" standalone="no"?>
<svg viewBox="0 0 1137 1024" version="1.1" xmlns="http://www.w3.org/2000/svg" xmlns:xlink="http://www.w3.org/1999/xlink">
  <path d="M255.69298083 195.99396165c-62.1840701 0-112.69417956 50.51010946-112.69418058 112.69417956s50.51010946 112.69417956 112.69418058 112.69417955a112.69417956 112.69417956 0 0 0 0-225.38835911z m0 139.79857473a27.16218717 27.16218717 0 0 1-27.10439518-27.10439517 27.16218717 27.16218717 0 0 1 27.10439518-27.10439518 27.16218717 27.16218717 0 0 1 27.10439517 27.10439518 27.16218717 27.16218717 0 0 1-27.16218717 27.10439517zM1108.18110781 555.34391568l-486.26093816-490.88429003a57.04059225 57.04059225 0 0 0-40.85886476-17.04860648H90.29259987C44.00129829 47.35322717 6.32098743 84.62899505 6.32098743 130.57354463v302.82948877c0 15.19926654 5.95256483 29.4738621 16.75964749 40.28094577l485.74081118 479.90383035a84.54953041 84.54953041 0 0 0 118.64674438 0l38.37381282-37.96926984 38.31602184 37.96926984a84.54953041 84.54953041 0 0 0 118.64674337 0l284.74062832-281.33090641a82.64239848 82.64239848 0 0 0 0.63571098-116.91298743z m-195.97228902 116.91298743c15.83497752-15.48822552 24.50376025-36.17772089 24.67713524-58.25422222a82.06447949 82.06447949 0 0 0-23.98363327-58.65876521l-418.41326222-422.45869511h74.89828571l475.85839848 480.53954133-281.73545041 278.38352051-36.87122388-36.29330489 185.56975035-183.25807441zM91.91077283 421.26673676V132.88522057h282.13999238l475.74281549 480.25058235-189.78855822 187.65025727-49.1231035 48.89193651-42.76599669 42.13028571-476.20514946-470.54154565z"></path>
</svg>