<?xml version="1.0" standalone="no"?>
<svg viewBox="0 0 1024 1024" version="1.1" xmlns="http://www.w3.org/2000/svg" xmlns:xlink="http://www.w3.org/1999/xlink">
  <path d="M927.9140764 295.35852594c-0.75108647-8.44972147-1.40828738-16.99332944-2.15937386-25.44305092-6.29034855-74.16977886-12.76846824-150.96835945-10.32743766-208.14480982 0.6572009-14.83395558-10.70298089-27.41465268-25.53693647-28.25962378L866.23110812 32.10275403c-9.20080794-0.56331438-18.02607265 3.5676603-23.47144914 10.98463857-15.11561324 20.56098974-17.27498617 22.438705-43.6568947 22.438705H237.19627516c-15.9605853 0-28.54128239 0-35.11328766-2.44103058-3.84931796-1.50217295-9.29469352-4.78817559-16.71167179-17.55664384-4.88206117-8.35583589-13.80121238-13.42566914-23.47144914-13.42566915h-22.34481942C124.90886366 32.10275403 112.98536747 43.65070698 112.42205214 58.29689142c-2.347145 66.47114388-6.29034855 154.06659095-15.20949882 242.22535334-1.59605853 15.9605853 10.89075205 29.85568327 27.03910943 29.85568325h22.34481943c12.11126734 0 22.81424825-8.07417822 26.10025181-19.71601768 18.40161589-64.40565559 32.48448499-108.25032238 59.33582234-129.65628418 25.34916534-20.18544651 67.97331589-27.6963094 157.16482243-27.6963094h32.10894269c15.02172767 0 27.13299501 12.11126734 27.13299501 27.13299501v628.94094644c0 47.60009824-2.25325944 73.98200677-14.45841329 86.37493272-12.95623939 13.0501259-45.53461089 19.99767442-109.00140886 23.18979148-14.45841235 0.75108647-25.81859414 12.67458266-25.8185932 27.13299501v19.52824559c0 15.02172767 12.11126734 27.13299501 27.132995 27.13299501h376.48204102c15.02172767 0 27.13299501-12.11126734 27.13299502-27.13299501v-19.52824559c0-14.45841235-11.36018086-26.38190855-25.81859414-27.13299501-67.22222942-3.19211706-100.27002974-10.04577999-114.07124118-23.56533472-12.48681058-12.20515386-14.83395558-38.49317587-14.83395652-85.99938948V180.44231176c0-15.02172767 12.11126734-27.13299501 27.132995-27.13299501h69.75714651c107.687008 0 148.05790006 12.76846824 178.38301214 155.5687639 3.19211706 14.92784116 17.93218707 24.31642119 32.76614266 20.7487609l23.65922122-5.53926208c13.23789706-3.09823148 22.15704827-15.3033844 21.03041856-28.72905353z"></path>
</svg>