<?xml version="1.0" standalone="no"?>
<svg viewBox="0 0 1095 1024" version="1.1" xmlns="http://www.w3.org/2000/svg" xmlns:xlink="http://www.w3.org/1999/xlink">
  <path d="M1045.903743 5.475936c-246.417112-21.903743-487.358289 49.283422-684.491978 202.609625-175.229947 131.42246-246.417112 366.887701-169.754011 569.497327L21.903743 930.909091c-21.903743 21.903743-27.379679 54.759358-5.475936 76.663102 10.951872 10.951872 27.379679 16.427807 43.807487 16.427807 10.951872 0 27.379679-5.475936 38.331551-16.427807L273.796791 854.245989c38.331551 16.427807 98.566845 32.855615 169.754011 32.855615 87.614973 0 197.13369-21.903743 312.128342-93.090909C1045.903743 613.304813 1095.187166 87.614973 1095.187166 65.71123c0-32.855615-21.903743-60.235294-49.283423-60.235294z m-350.459893 689.967914c-136.898396 87.614973-257.368984 87.614973-328.556149 71.187166l372.363636-328.55615c21.903743-21.903743 27.379679-54.759358 5.475936-76.663101-21.903743-21.903743-54.759358-27.379679-76.663102-5.475936l-383.315508 334.032085c-38.331551-142.374332 16.427807-301.176471 142.374332-399.743315 158.802139-120.470588 350.459893-186.181818 547.593583-180.705882-16.427807 131.42246-82.139037 465.454545-279.272728 585.925133z"></path>
</svg>