<svg viewBox="0 0 1024 1024" version="1.1" xmlns="http://www.w3.org/2000/svg"><path d="M509.76000035 8C231.99999965 8 8 234.24000035 8 512s223.99999965 504 501.76000035 504S1011.51999965 789.75999965 1011.51999965 512 787.52 8 509.76000035 8z m0 940.8C270.08 948.8 75.2 753.92 75.2 512S270.08 75.2 509.76000035 75.2 944.31999965 270.08 944.31999965 512s-194.88 436.8-434.5599993 436.8z"></path><path d="M534.39999965 352.95999965c-13.44-13.44-33.6-13.44-47.04 0l-201.6 201.6c-13.44 13.44-13.44 33.6 0 47.04 6.72 6.72 15.67999965 8.95999965 24.64000035 8.9600007s17.92000035-2.23999965 24.64000035-8.9600007l176.95999965-176.95999965 176.95999965 176.95999965c13.44 13.44 33.6 13.44 47.04 0s13.44-33.6 0-47.04l-201.6-201.6z"></path></svg>
