<?xml version="1.0" standalone="no"?>
<svg viewBox="0 0 1024 1024" version="1.1" xmlns="http://www.w3.org/2000/svg" xmlns:xlink="http://www.w3.org/1999/xlink">
  <path d="M519.14588372 451.88383528c-3.62965524-4.65049576-10.66211223-4.65049576-14.29176744 0l-127.03793304 160.7256706c-4.65049576 5.89818975-0.4537069 14.63204763 7.14588376 14.63204765h83.82235043V902.18793713c0 4.99077593 4.08336214 9.07413807 9.07413808 9.07413806h68.05603555c4.99077593 0 9.07413807-4.08336214 9.07413806-9.07413806V627.35498025H639.037933c7.59959063 0 11.79637949-8.7338579 7.14588376-14.63204765L519.14588372 451.88383528z"></path>
  <path d="M851.59961737 347.19096726C799.6501769 210.17148236 667.28118777 112.73792481 512.22685345 112.73792481S224.80353 210.05805561 172.85408953 347.07754053C75.64738544 372.59855385 3.84826793 461.1848268 3.84826793 566.44482844c0 125.33653213 101.51691969 226.8534518 226.74002509 226.85345182H276.07241011c4.99077593 0 9.07413807-4.08336214 9.07413809-9.07413808v-68.05603553c0-4.99077593-4.08336214-9.07413807-9.07413809-9.07413808h-45.48411709c-38.22480663 0-74.18107874-15.19918127-100.94978605-42.76187567-26.65528059-27.44926768-40.83362133-64.42638032-39.58592734-102.76461368 1.02084052-29.94465564 11.22924587-58.07448366 29.71780219-81.78066938 18.94226322-24.15989262 45.4841171-41.74103513 74.97506581-49.56747922l42.98872912-11.22924587 15.76631489-41.51418167c9.75469843-25.8612935 23.36590553-50.02118612 40.49334115-71.91254424 16.90058216-21.77793137 36.97711263-40.72019461 59.43560439-56.59993624 46.61838436-32.78032379 101.51691969-50.13461286 158.79741627-50.13461283s112.17903194 17.35428907 158.79741627 50.13461283c22.57191847 15.87974163 42.53502222 34.93543159 59.43560438 56.59993624 17.12743561 21.8913581 30.73864272 46.16467745 40.49334115 71.91254424l15.65288818 41.40075496 42.87530239 11.34267258C890.95869126 446.77963261 933.94742037 502.69900848 933.94742037 566.44482844c0 37.54424628-14.63204763 72.93338475-41.17390149 99.47523862-26.54185387 26.54185387-61.81756562 41.17390151-99.3618119 41.17390151H747.92758989c-4.99077593 0-9.07413807 4.08336214-9.07413809 9.07413808v68.05603553c0 4.99077593 4.08336214 9.07413807 9.07413809 9.07413808h45.48411709C918.63481239 793.29828026 1020.15173207 691.78136058 1020.15173207 566.44482844c0-105.1465749-71.57226406-193.61942111-168.5521147-219.25386118z"></path>
</svg>