<svg viewBox="0 0 1489 1024" version="1.1" xmlns="http://www.w3.org/2000/svg">
  <path d="M1464.79407287 486.88387371a971.41907255 971.41907255 0 0 0-220.06746299-286.44021132c-13.89899712-13.89899712-34.9489283-10.47460739-48.84792651 3.5251083-13.9997146 13.9997146-10.47460739 34.9489283 3.42439082 48.84792542 108.2711768 94.37217968 171.21953539 202.64335651 199.11824928 255.0163913-59.42325031 118.74578421-261.86517294 443.45859826-653.05145384 443.45859824-394.71138921 0-593.72891993-324.71281404-653.15217024-440.03420742C151.64094969 396.0368023 354.18358872 81.69787819 745.47058709 81.69787819c118.74578421 0 227.01696102 27.99943028 324.71281405 83.89757229 17.5248229 10.47460739 38.47403659 3.42439081 48.94864399-14.10043208 10.47460739-17.42410543 3.52510828-38.27260164-13.99971569-48.84792651A743.49565535 743.49565535 0 0 0 745.47058709 11.90073796C298.28544671 11.8000205 78.31870118 378.41126195 22.3198417 490.20754705l-3.52510829 3.52510828a48.44505662 48.44505662 0 0 0 0 31.42382111l3.52510829 3.5251072c55.8981431 115.22067592 275.965605 492.40724224 722.94931045 492.40724223 440.03420744 0 660.00095187-377.18656631 719.42420325-492.50795862l3.42439083-3.42439081a48.44505662 48.44505662 0 0 0 0-31.42382111l-3.42439083-7.05021657z"></path>
  <path d="M465.97987381 514.78258651a276.46919128 276.46919128 0 0 0 275.86488753 275.96560501 274.25340905 274.25340905 0 0 0 275.965605-275.96560501 276.46919128 276.46919128 0 0 0-275.965605-275.965605 274.25340905 274.25340905 0 0 0-275.965605 275.965605z m481.93263484 0A206.4706172 206.4706172 0 0 1 741.84476134 720.85033383a204.25483497 204.25483497 0 0 1-206.0677473-206.06774732 206.4706172 206.4706172 0 0 1 206.0677473-206.0677473 206.4706172 206.4706172 0 0 1 206.06774731 206.0677473z"></path>
</svg>