<svg viewBox="0 0 1024 1024" version="1.1" xmlns="http://www.w3.org/2000/svg">
  <path d="M266.36174222 610.83875555c-11.31178667 30.29105778-20.87480889 58.25422222-29.41838222 86.55530667 46.60337778-33.83637333 101.99267555-55.29258667 165.92668445-63.30254222 121.99480889-15.24394667 230.39544889-95.78040889 285.25226666-196.99712l-70.68216889-70.63324445 68.59434667-68.69105777 48.54556444-48.59448889c20.87367111-20.87367111 44.41884445-59.41816889 69.32252445-114.95424C532.38897778 176.31004445 366.12209778 342.57692445 266.31281778 610.83761778z m488.36380445-244.42538666L803.27111111 414.91000889c-48.54556445 145.63555555-194.18112 291.27111111-388.36110222 315.54332444-129.56785778 16.21333333-210.49230222 105.19779555-242.82339556 266.99889778H75.09333333c48.54556445-291.27111111 145.63555555-970.90446222 873.81333334-970.90446222-48.54556445 145.48992-96.99328 242.53212445-145.48992 291.12547556l-48.6912 48.74012444z"></path>
</svg>
