<svg viewBox="0 0 1024 1024" version="1.1" xmlns="http://www.w3.org/2000/svg">
  <path
    d="M996.47557267 285.30663413L996.47557267 285.30663413 441.26967871 840.58101061c-13.1379942 13.16352999-31.26236681 21.24898511-51.26475703 21.24898512-19.95596129 0-38.05363889-8.08545516-51.19163312-21.24898512L24.88498856 526.73396042c-13.07067317-13.08228014-21.17818189-31.22522409-21.17818191-51.14520415 0-40.00594085 32.43467626-72.52302728 72.44177745-72.52302727 20.00122875 0 38.12560249 8.15393654 51.26359669 21.23505632l262.5939001 262.65425672 504.0583691-504.12801085c13.11594066-13.07995943 31.26236681-21.15380648 51.28681062-21.1538065 39.95835153 0 72.44177744 32.42423079 72.44177744 72.44061711C1017.7930392 254.05587429 1009.70758403 272.23828279 996.47557267 285.30663413"></path>
</svg>