<?xml version="1.0" standalone="no"?><!DOCTYPE svg PUBLIC "-//W3C//DTD SVG 1.1//EN" "http://www.w3.org/Graphics/SVG/1.1/DTD/svg11.dtd"><svg t="1641655507973" class="icon" viewBox="0 0 1024 1024" version="1.1" xmlns="http://www.w3.org/2000/svg" p-id="1473" xmlns:xlink="http://www.w3.org/1999/xlink" width="200" height="200"><defs><style type="text/css"></style></defs><path d="M1020.74913749 499.54458091c0-61.37113608-34.66110753-114.64469159-85.47076093-141.30144789-16.79448868-8.80345493-25.35155328-27.92866156-21.14294211-46.42124401 11.75347834-51.66868989-2.47056139-108.0520891-42.69209488-148.28694237-43.38465174-43.39797038-105.54823224-56.54322064-160.32010649-39.45572637-18.09969051 5.64699715-37.67106252-1.81796049-47.76640181-17.86661885-28.20834732-44.84967504-78.12566883-74.65622864-135.00850915-74.65622982-61.35115812 0-114.60473681 34.67442499-141.25483261 85.5040576-8.80345493 16.79448868-27.92200222 25.35155328-46.40126724 21.14294213-51.65537126-11.76013765-108.01879362 2.47056139-148.24032708 42.71207284-43.38465174 43.39797038-56.52990199 105.58152767-39.44240889 160.37337989 5.64699715 18.09969051-1.81796049 37.67772183-17.86661884 47.77306114-44.83635638 28.22166598-74.6295925 78.15230611-74.6295925 135.05512327 0 61.3777954 34.66110753 114.64469159 85.47076093 141.30144671 16.79448868 8.81011426 25.35155328 27.92866156 21.14294213 46.4212452-11.75347834 51.66868989 2.47056139 108.0520891 42.69209603 148.28694119 43.38465174 43.39797038 105.54823224 56.54322064 160.32010652 39.45572754 18.09969051-5.64699715 37.67106252 1.81796049 47.76640178 17.87327817 28.20834732 44.84967504 78.12566883 74.64956933 135.00850798 74.64956931 61.35115812 0 114.60473681-34.67442499 141.25483265-85.5040564 8.80345493-16.78782933 27.92200222-25.35155328 46.4079265-21.14294213 51.64871193 11.76013765 108.0121343-2.47056139 148.23366897-42.70541469 43.38465174-43.39797038 56.52990199-105.58818701 39.44240889-160.37337993-5.64699715-18.10634985 1.81796049-37.67772183 17.86661884-47.77972044 44.83635638-28.22166598 74.6295925-78.15230611 74.62959131-135.04846275" fill="#FCB651" p-id="1474"></path><path d="M876.17802683 361.67261841c49.67759049 26.06408697 83.5662316 78.13898748 83.56623043 138.14498895 0 55.63091071-29.13397587 104.44946475-72.964793 132.03850777-15.68906188 9.87558511-22.98753873 29.01411035-17.46706757 46.71424964 16.70125931 53.56655994 3.84901465 114.36500581-38.56339443 156.79739168-36.91191474 36.92523338-87.7348868 51.44227754-135.59451798 43.57776865a155.05934312 155.05934312 0 0 0 72.33217-41.00066038c42.41906841-42.42572773 55.26465491-103.22417361 38.55673631-156.7907324-5.52047235-17.70013924 1.77800454-36.83866332 17.46706636-46.71424961 43.83747762-27.58904301 72.96479416-76.40759703 72.96479418-132.03850775 0-60.00600148-33.88864109-112.0875613-83.56623161-138.14498895-16.41491419-8.61699737-24.77886309-27.30935607-20.66348011-45.3890698 11.48711004-50.50998968-2.41728799-105.64146042-41.74648953-144.97066313a155.09263858 155.09263858 0 0 0-84.77154591-43.5844268c51.33572952-12.79897123 107.90558746 0.84571782 148.0338927 41.00065921 39.3292027 39.33586202 53.24026006 94.46067345 41.74648953 144.9706643-4.11538179 18.07971256 4.25522527 36.77873058 20.67014063 45.38906862zM547.06065881 117.84621426c-23.29386181-37.03843955-61.7307326-63.57532919-106.61370309-70.93373997a156.09151853 156.09151853 0 0 1 37.88415739-4.64145787c55.61093277 0 104.4161693 29.14063518 131.99189247 72.98477095a41.34693822 41.34693822 0 0 0 14.25067706 13.77121387 156.104836 156.104836 0 0 0-30.81209289 6.28627942c-17.70013924 5.52713165-36.82534586-1.77800454-46.70093094-17.4670664z" fill="#F4A03B" p-id="1475"></path><path d="M598.0834071 122.67412974c-26.08406493-41.47346303-70.85382924-66.23234816-119.76561265-66.23234818a141.11498915 141.11498915 0 0 0-125.29940244 75.84822549c-9.66915075 18.44596838-28.80767482 29.55350513-49.13153761 29.55350393a56.07041679 56.07041679 0 0 1-12.45269337-1.39843004 142.04061771 142.04061771 0 0 0-41.12718521-3.22304987 14.59695373 14.59695373 0 0 1-1.96446209-29.13397585 171.14129694 171.14129694 0 0 1 49.57104363 3.87565077c11.73350036 2.67033646 23.76000635-2.77022516 29.24718205-13.23847845C356.74753998 62.28855493 414.66921387 27.23455431 478.32445378 27.23455431c14.11749172 0 28.16173322 1.75802773 41.75314882 5.18085379 14.65688647 3.69585255 28.80767482 9.32287171 41.99953918 16.78117004a171.77392107 171.77392107 0 0 1 60.71853516 57.92167387c6.40614492 10.18856752 18.75229146 14.85000337 30.03296713 11.32063045a170.19569159 170.19569159 0 0 1 171.56082734 42.22595151 170.70179089 170.70179089 0 0 1 43.7042923 74.77609412 171.83385381 171.83385381 0 0 1 1.98444007 83.90585014c-2.6636783 11.73350036 2.77022516 23.76666448 13.23847845 29.25384135a170.30223845 170.30223845 0 0 1 91.45737664 151.21032847c0 29.36704755-7.59148127 58.34786129-21.94870401 83.78598463a171.78058039 171.78058039 0 0 1-57.90835523 60.7318538c-10.1819082 6.41280426-14.83668472 18.7656101-11.32063044 30.04628576a170.33553508 170.33553508 0 0 1-42.20597472 171.61409964c-20.77002698 20.77668631-46.61436092 35.89305798-74.74945799 43.72427145a171.67403355 171.67403355 0 0 1-83.87921283 1.98444006c-11.73350036-2.6636783-23.76000635 2.77688448-29.24718205 13.23847844a170.22898823 170.22898823 0 0 1-151.15705505 91.49733139c-29.36704755 0-58.3345438-7.59814062-83.75934847-21.96202381a171.78058039 171.78058039 0 0 1-60.71187586-57.92833206c-6.41280426-10.18856752-18.7656101-14.84334405-30.03296595-11.32063043a170.20901023 170.20901023 0 0 1-171.56082734-42.22595268 170.70845021 170.70845021 0 0 1-43.71095279-74.77609413 171.86048997 171.86048997 0 0 1-1.98443892-83.90585012c2.67033646-11.73350036-2.77022516-23.76666448-13.23182029-29.25384135A170.30223845 170.30223845 0 0 1 5.90122099 523.85729949a170.74174568 170.74174568 0 0 1 21.94870517-83.79264396 171.78058039 171.78058039 0 0 1 57.90835522-60.73185263c10.18856752-6.40614492 14.83668472-18.7656101 11.32063045-30.04628576a14.60361303 14.60361303 0 0 1 27.87538812-8.6969081c7.4582983 23.90650797-2.26412586 50.01055087-23.646799 63.46212301-41.46014441 26.0973836-66.21237019 70.88046539-66.21237135 119.7989081A141.1749219 141.1749219 0 0 0 110.9233771 649.20331722c22.17511753 11.63361283 33.74879764 36.95852882 28.14175639 61.59754844-10.86780574 47.77972046 3.28964193 96.95787099 37.87083876 131.55238644a141.08835304 141.08835304 0 0 0 142.21375662 34.9940667c23.90650797-7.4582983 49.99723223 2.26412586 63.44880437 23.65345832 26.08406493 41.47346303 70.85382924 66.22568886 119.75895331 66.22568886a141.11498915 141.11498915 0 0 0 125.29940248-75.84822432c11.63361283-22.17511753 36.95852882-33.76211628 61.58423095-28.14841456 47.75974249 10.87446507 96.9179162-3.28964193 131.49911301-37.88415739a141.2015592 141.2015592 0 0 0 34.98740741-142.26703123c-7.4582983-23.90650797 2.26412586-50.01055087 23.64013965-63.46212301 41.46014441-26.09072425 66.21237019-70.88046539 66.21237137-119.79890811a141.1749219 141.1749219 0 0 0-75.8282475-125.34601656c-22.17511753-11.63361283-33.7421383-36.95852882-28.14175643-61.59754961 10.87446507-47.77972046-3.2829826-96.95787099-37.86417939-131.54572711a141.08835304 141.08835304 0 0 0-142.22041597-34.9940667c-23.90650797 7.4582983-49.9905729-2.27078518-63.44214503-23.65345832zM104.17761364 304.30365793c-0.26636828 0-0.53939475 0-0.81242238-0.0199768a14.60361303 14.60361303 0 0 1-13.77787319-15.38273995 170.36217121 170.36217121 0 0 1 49.70422778-111.22852485 169.51645455 169.51645455 0 0 1 56.60315222-37.55119699 14.59695373 14.59695373 0 1 1 10.94105716 27.07628438 140.47570688 140.47570688 0 0 0-46.9007072 31.12507527 141.18824056 141.18824056 0 0 0-41.19377612 92.18322897 14.60361303 14.60361303 0 0 1-14.56365827 13.79784997z" fill="#595757" p-id="1476"></path><path d="M321.87333875 532.66741375c-7.43832033-53.99940783-30.73218213-95.39296016-52.02828639-92.45625539a15.92879287 15.92879287 0 0 0-2.29076199 0.49943878c-19.73119342-4.34845345-55.95055126 9.90222241-90.37858714 37.2182378-42.68543671 33.86200379-66.46541985 74.9825297-53.10707588 91.83029178 13.35834394 16.85442143 58.80068716 3.06322957 101.48612269-30.80543354a245.32472407 245.32472407 0 0 0 17.27395068-15.04977959c0.36625583 6.29959809 0.99887878 12.78565374 1.90452936 19.38491558 7.431661 53.99274851 30.72552283 95.38630084 52.02828638 92.44959608 21.30276357-2.93004543 32.5434833-49.07826299 25.10516297-103.07767084M865.11044486 474.89890197c-0.05993276-21.50919796-44.27032434-38.8231034-98.75585349-38.67660174-54.48552915 0.1465028-98.60935185 17.70013924-98.55607844 39.20933718 0.00665932 0.78578507 0.07325142 1.5649108 0.1931169 2.33737725-6.94553969 18.9787038 2.33071792 56.78960978 24.7855224 94.57387964 27.83543335 46.85409192 65.39328967 75.92147573 83.8725535 64.92714631 18.48592434-10.98767123 10.89444187-57.87505861-16.9409903-104.72915169a246.1704419 246.1704419 0 0 0-12.60585551-19.13186593c6.29293876 0.47946201 12.79897123 0.71919301 19.45816701 0.70587554 54.48552915-0.1465028 98.60935185-17.70679857 98.55607725-39.21599656" fill="#D88832" p-id="1477"></path></svg>